<?xml version="1.0" encoding="utf-8" standalone="no"?>
<!DOCTYPE svg PUBLIC "-//W3C//DTD SVG 1.1//EN"
  "http://www.w3.org/Graphics/SVG/1.1/DTD/svg11.dtd">
<svg xmlns:xlink="http://www.w3.org/1999/xlink" width="720pt" height="360pt" viewBox="0 0 720 360" xmlns="http://www.w3.org/2000/svg" version="1.1">
 <metadata>
  <rdf:RDF xmlns:dc="http://purl.org/dc/elements/1.1/" xmlns:cc="http://creativecommons.org/ns#" xmlns:rdf="http://www.w3.org/1999/02/22-rdf-syntax-ns#">
   <cc:Work>
    <dc:type rdf:resource="http://purl.org/dc/dcmitype/StillImage"/>
    <dc:date>2023-05-23T16:54:21.274964</dc:date>
    <dc:format>image/svg+xml</dc:format>
    <dc:creator>
     <cc:Agent>
      <dc:title>Matplotlib v3.7.1, https://matplotlib.org/</dc:title>
     </cc:Agent>
    </dc:creator>
   </cc:Work>
  </rdf:RDF>
 </metadata>
 <defs>
  <style type="text/css">*{stroke-linejoin: round; stroke-linecap: butt}</style>
 </defs>
 <g id="figure_1">
  <g id="patch_1">
   <path d="M 0 360 
L 720 360 
L 720 0 
L 0 0 
z
" style="fill: #ffffff"/>
  </g>
  <g id="axes_1">
   <g id="patch_2">
    <path d="M 96.95 296.44 
L 352.673926 296.44 
L 352.673926 54 
L 96.95 54 
z
" style="fill: #ffffff"/>
   </g>
   <g id="matplotlib.axis_1">
    <g id="xtick_1">
     <g id="line2d_1">
      <defs>
       <path id="m143c17d625" d="M 0 0 
L 0 3.5 
" style="stroke: #000000; stroke-width: 0.8"/>
      </defs>
      <g>
       <use xlink:href="#m143c17d625" x="108.573815" y="296.44" style="stroke: #000000; stroke-width: 0.8"/>
      </g>
     </g>
     <g id="text_1">
      <!-- 0.0 -->
      <g transform="translate(95.851315 315.5975) scale(0.16 -0.16)">
       <defs>
        <path id="DejaVuSerif-30" d="M 2034 219 
Q 2513 219 2750 744 
Q 2988 1269 2988 2328 
Q 2988 3391 2750 3916 
Q 2513 4441 2034 4441 
Q 1556 4441 1318 3916 
Q 1081 3391 1081 2328 
Q 1081 1269 1318 744 
Q 1556 219 2034 219 
z
M 2034 -91 
Q 1275 -91 848 546 
Q 422 1184 422 2328 
Q 422 3475 848 4112 
Q 1275 4750 2034 4750 
Q 2797 4750 3222 4112 
Q 3647 3475 3647 2328 
Q 3647 1184 3222 546 
Q 2797 -91 2034 -91 
z
" transform="scale(0.015625)"/>
        <path id="DejaVuSerif-2e" d="M 603 325 
Q 603 500 722 622 
Q 841 744 1019 744 
Q 1191 744 1312 622 
Q 1434 500 1434 325 
Q 1434 153 1312 31 
Q 1191 -91 1019 -91 
Q 841 -91 722 29 
Q 603 150 603 325 
z
" transform="scale(0.015625)"/>
       </defs>
       <use xlink:href="#DejaVuSerif-30"/>
       <use xlink:href="#DejaVuSerif-2e" x="63.623047"/>
       <use xlink:href="#DejaVuSerif-30" x="95.410156"/>
      </g>
     </g>
    </g>
    <g id="xtick_2">
     <g id="line2d_2">
      <g>
       <use xlink:href="#m143c17d625" x="166.692889" y="296.44" style="stroke: #000000; stroke-width: 0.8"/>
      </g>
     </g>
     <g id="text_2">
      <!-- 2.5 -->
      <g transform="translate(153.970389 315.5975) scale(0.16 -0.16)">
       <defs>
        <path id="DejaVuSerif-32" d="M 819 3553 
L 469 3553 
L 469 4384 
Q 803 4563 1142 4656 
Q 1481 4750 1806 4750 
Q 2534 4750 2956 4397 
Q 3378 4044 3378 3438 
Q 3378 2753 2422 1800 
Q 2347 1728 2309 1691 
L 1131 513 
L 3078 513 
L 3078 1088 
L 3444 1088 
L 3444 0 
L 434 0 
L 434 341 
L 1850 1753 
Q 2319 2222 2519 2614 
Q 2719 3006 2719 3438 
Q 2719 3909 2473 4175 
Q 2228 4441 1797 4441 
Q 1350 4441 1106 4219 
Q 863 3997 819 3553 
z
" transform="scale(0.015625)"/>
        <path id="DejaVuSerif-35" d="M 3219 4666 
L 3219 4153 
L 1081 4153 
L 1081 2816 
Q 1244 2928 1461 2984 
Q 1678 3041 1947 3041 
Q 2703 3041 3140 2622 
Q 3578 2203 3578 1478 
Q 3578 738 3136 323 
Q 2694 -91 1894 -91 
Q 1572 -91 1234 -12 
Q 897 66 544 225 
L 544 1131 
L 897 1131 
Q 925 688 1179 453 
Q 1434 219 1894 219 
Q 2388 219 2653 544 
Q 2919 869 2919 1478 
Q 2919 2084 2655 2407 
Q 2391 2731 1894 2731 
Q 1613 2731 1398 2631 
Q 1184 2531 1019 2322 
L 750 2322 
L 750 4666 
L 3219 4666 
z
" transform="scale(0.015625)"/>
       </defs>
       <use xlink:href="#DejaVuSerif-32"/>
       <use xlink:href="#DejaVuSerif-2e" x="63.623047"/>
       <use xlink:href="#DejaVuSerif-35" x="95.410156"/>
      </g>
     </g>
    </g>
    <g id="xtick_3">
     <g id="line2d_3">
      <g>
       <use xlink:href="#m143c17d625" x="224.811963" y="296.44" style="stroke: #000000; stroke-width: 0.8"/>
      </g>
     </g>
     <g id="text_3">
      <!-- 5.0 -->
      <g transform="translate(212.089463 315.5975) scale(0.16 -0.16)">
       <use xlink:href="#DejaVuSerif-35"/>
       <use xlink:href="#DejaVuSerif-2e" x="63.623047"/>
       <use xlink:href="#DejaVuSerif-30" x="95.410156"/>
      </g>
     </g>
    </g>
    <g id="xtick_4">
     <g id="line2d_4">
      <g>
       <use xlink:href="#m143c17d625" x="282.931037" y="296.44" style="stroke: #000000; stroke-width: 0.8"/>
      </g>
     </g>
     <g id="text_4">
      <!-- 7.5 -->
      <g transform="translate(270.208537 315.5975) scale(0.16 -0.16)">
       <defs>
        <path id="DejaVuSerif-37" d="M 3609 4347 
L 1784 0 
L 1319 0 
L 3059 4153 
L 903 4153 
L 903 3578 
L 538 3578 
L 538 4666 
L 3609 4666 
L 3609 4347 
z
" transform="scale(0.015625)"/>
       </defs>
       <use xlink:href="#DejaVuSerif-37"/>
       <use xlink:href="#DejaVuSerif-2e" x="63.623047"/>
       <use xlink:href="#DejaVuSerif-35" x="95.410156"/>
      </g>
     </g>
    </g>
    <g id="xtick_5">
     <g id="line2d_5">
      <g>
       <use xlink:href="#m143c17d625" x="341.050111" y="296.44" style="stroke: #000000; stroke-width: 0.8"/>
      </g>
     </g>
     <g id="text_5">
      <!-- 10.0 -->
      <g transform="translate(323.237611 315.5975) scale(0.16 -0.16)">
       <defs>
        <path id="DejaVuSerif-31" d="M 909 0 
L 909 331 
L 1722 331 
L 1722 4213 
L 781 3603 
L 781 4013 
L 1919 4750 
L 2350 4750 
L 2350 331 
L 3163 331 
L 3163 0 
L 909 0 
z
" transform="scale(0.015625)"/>
       </defs>
       <use xlink:href="#DejaVuSerif-31"/>
       <use xlink:href="#DejaVuSerif-30" x="63.623047"/>
       <use xlink:href="#DejaVuSerif-2e" x="127.246094"/>
       <use xlink:href="#DejaVuSerif-30" x="159.033203"/>
      </g>
     </g>
    </g>
    <g id="text_6">
     <!-- $x/L$ -->
     <g transform="translate(210.731963 334.925) scale(0.16 -0.16)">
      <defs>
       <path id="Cmmi10-78" d="M 500 184 
Q 613 97 819 97 
Q 1019 97 1172 289 
Q 1325 481 1381 709 
L 1672 1844 
Q 1741 2153 1741 2266 
Q 1741 2425 1652 2544 
Q 1563 2663 1403 2663 
Q 1200 2663 1022 2536 
Q 844 2409 722 2214 
Q 600 2019 550 1819 
Q 538 1778 500 1778 
L 422 1778 
Q 372 1778 372 1838 
L 372 1856 
Q 434 2094 584 2320 
Q 734 2547 951 2687 
Q 1169 2828 1416 2828 
Q 1650 2828 1839 2703 
Q 2028 2578 2106 2363 
Q 2216 2559 2386 2693 
Q 2556 2828 2759 2828 
Q 2897 2828 3040 2779 
Q 3184 2731 3275 2631 
Q 3366 2531 3366 2381 
Q 3366 2219 3261 2101 
Q 3156 1984 2994 1984 
Q 2891 1984 2822 2050 
Q 2753 2116 2753 2216 
Q 2753 2350 2845 2451 
Q 2938 2553 3066 2572 
Q 2950 2663 2747 2663 
Q 2541 2663 2389 2472 
Q 2238 2281 2175 2047 
L 1894 916 
Q 1825 659 1825 494 
Q 1825 331 1917 214 
Q 2009 97 2163 97 
Q 2463 97 2698 361 
Q 2934 625 3009 941 
Q 3022 978 3059 978 
L 3138 978 
Q 3163 978 3178 961 
Q 3194 944 3194 922 
Q 3194 916 3188 903 
Q 3097 522 2806 225 
Q 2516 -72 2150 -72 
Q 1916 -72 1727 54 
Q 1538 181 1459 397 
Q 1359 209 1182 68 
Q 1006 -72 806 -72 
Q 669 -72 523 -23 
Q 378 25 287 125 
Q 197 225 197 378 
Q 197 528 301 651 
Q 406 775 563 775 
Q 669 775 741 711 
Q 813 647 813 544 
Q 813 409 723 309 
Q 634 209 500 184 
z
" transform="scale(0.015625)"/>
       <path id="Cmmi10-3d" d="M 359 -1472 
Q 359 -1453 366 -1447 
L 2591 4722 
Q 2603 4759 2634 4779 
Q 2666 4800 2706 4800 
Q 2763 4800 2798 4765 
Q 2834 4731 2834 4672 
L 2834 4647 
L 609 -1522 
Q 572 -1600 488 -1600 
Q 434 -1600 396 -1562 
Q 359 -1525 359 -1472 
z
" transform="scale(0.015625)"/>
       <path id="Cmmi10-4c" d="M 300 0 
Q 238 0 238 84 
Q 241 100 250 139 
Q 259 178 276 201 
Q 294 225 319 225 
Q 709 225 863 269 
Q 947 297 984 441 
L 1863 3956 
Q 1875 4019 1875 4044 
Q 1875 4113 1797 4122 
Q 1678 4147 1338 4147 
Q 1275 4147 1275 4231 
Q 1297 4313 1309 4342 
Q 1322 4372 1381 4372 
L 3272 4372 
Q 3328 4372 3328 4288 
Q 3319 4222 3306 4184 
Q 3294 4147 3244 4147 
Q 2772 4147 2613 4116 
Q 2456 4088 2419 3928 
L 1544 416 
Q 1516 338 1516 275 
Q 1516 225 1734 225 
L 2328 225 
Q 2831 225 3143 425 
Q 3456 625 3606 876 
Q 3756 1128 3857 1398 
Q 3959 1669 4006 1678 
L 4063 1678 
Q 4128 1678 4128 1594 
L 3559 44 
Q 3550 0 3500 0 
L 300 0 
z
" transform="scale(0.015625)"/>
      </defs>
      <use xlink:href="#Cmmi10-78"/>
      <use xlink:href="#Cmmi10-3d" transform="translate(57.080078 0)"/>
      <use xlink:href="#Cmmi10-4c" transform="translate(107.080078 0)"/>
     </g>
    </g>
   </g>
   <g id="matplotlib.axis_2">
    <g id="ytick_1">
     <g id="line2d_6">
      <defs>
       <path id="m501592f97b" d="M 0 0 
L -3.5 0 
" style="stroke: #000000; stroke-width: 0.8"/>
      </defs>
      <g>
       <use xlink:href="#m501592f97b" x="96.95" y="281.46005" style="stroke: #000000; stroke-width: 0.8"/>
      </g>
     </g>
     <g id="text_7">
      <!-- −0.75 -->
      <g transform="translate(40.9175 287.5388) scale(0.16 -0.16)">
       <defs>
        <path id="DejaVuSerif-2212" d="M 678 2259 
L 4684 2259 
L 4684 1753 
L 678 1753 
L 678 2259 
z
" transform="scale(0.015625)"/>
       </defs>
       <use xlink:href="#DejaVuSerif-2212"/>
       <use xlink:href="#DejaVuSerif-30" x="83.789062"/>
       <use xlink:href="#DejaVuSerif-2e" x="147.412109"/>
       <use xlink:href="#DejaVuSerif-37" x="179.199219"/>
       <use xlink:href="#DejaVuSerif-35" x="242.822266"/>
      </g>
     </g>
    </g>
    <g id="ytick_2">
     <g id="line2d_7">
      <g>
       <use xlink:href="#m501592f97b" x="96.95" y="246.046723" style="stroke: #000000; stroke-width: 0.8"/>
      </g>
     </g>
     <g id="text_8">
      <!-- −0.50 -->
      <g transform="translate(40.9175 252.125473) scale(0.16 -0.16)">
       <use xlink:href="#DejaVuSerif-2212"/>
       <use xlink:href="#DejaVuSerif-30" x="83.789062"/>
       <use xlink:href="#DejaVuSerif-2e" x="147.412109"/>
       <use xlink:href="#DejaVuSerif-35" x="179.199219"/>
       <use xlink:href="#DejaVuSerif-30" x="242.822266"/>
      </g>
     </g>
    </g>
    <g id="ytick_3">
     <g id="line2d_8">
      <g>
       <use xlink:href="#m501592f97b" x="96.95" y="210.633395" style="stroke: #000000; stroke-width: 0.8"/>
      </g>
     </g>
     <g id="text_9">
      <!-- −0.25 -->
      <g transform="translate(40.9175 216.712145) scale(0.16 -0.16)">
       <use xlink:href="#DejaVuSerif-2212"/>
       <use xlink:href="#DejaVuSerif-30" x="83.789062"/>
       <use xlink:href="#DejaVuSerif-2e" x="147.412109"/>
       <use xlink:href="#DejaVuSerif-32" x="179.199219"/>
       <use xlink:href="#DejaVuSerif-35" x="242.822266"/>
      </g>
     </g>
    </g>
    <g id="ytick_4">
     <g id="line2d_9">
      <g>
       <use xlink:href="#m501592f97b" x="96.95" y="175.220068" style="stroke: #000000; stroke-width: 0.8"/>
      </g>
     </g>
     <g id="text_10">
      <!-- 0.00 -->
      <g transform="translate(54.325 181.298818) scale(0.16 -0.16)">
       <use xlink:href="#DejaVuSerif-30"/>
       <use xlink:href="#DejaVuSerif-2e" x="63.623047"/>
       <use xlink:href="#DejaVuSerif-30" x="95.410156"/>
       <use xlink:href="#DejaVuSerif-30" x="159.033203"/>
      </g>
     </g>
    </g>
    <g id="ytick_5">
     <g id="line2d_10">
      <g>
       <use xlink:href="#m501592f97b" x="96.95" y="139.806741" style="stroke: #000000; stroke-width: 0.8"/>
      </g>
     </g>
     <g id="text_11">
      <!-- 0.25 -->
      <g transform="translate(54.325 145.885491) scale(0.16 -0.16)">
       <use xlink:href="#DejaVuSerif-30"/>
       <use xlink:href="#DejaVuSerif-2e" x="63.623047"/>
       <use xlink:href="#DejaVuSerif-32" x="95.410156"/>
       <use xlink:href="#DejaVuSerif-35" x="159.033203"/>
      </g>
     </g>
    </g>
    <g id="ytick_6">
     <g id="line2d_11">
      <g>
       <use xlink:href="#m501592f97b" x="96.95" y="104.393413" style="stroke: #000000; stroke-width: 0.8"/>
      </g>
     </g>
     <g id="text_12">
      <!-- 0.50 -->
      <g transform="translate(54.325 110.472163) scale(0.16 -0.16)">
       <use xlink:href="#DejaVuSerif-30"/>
       <use xlink:href="#DejaVuSerif-2e" x="63.623047"/>
       <use xlink:href="#DejaVuSerif-35" x="95.410156"/>
       <use xlink:href="#DejaVuSerif-30" x="159.033203"/>
      </g>
     </g>
    </g>
    <g id="ytick_7">
     <g id="line2d_12">
      <g>
       <use xlink:href="#m501592f97b" x="96.95" y="68.980086" style="stroke: #000000; stroke-width: 0.8"/>
      </g>
     </g>
     <g id="text_13">
      <!-- 0.75 -->
      <g transform="translate(54.325 75.058836) scale(0.16 -0.16)">
       <use xlink:href="#DejaVuSerif-30"/>
       <use xlink:href="#DejaVuSerif-2e" x="63.623047"/>
       <use xlink:href="#DejaVuSerif-37" x="95.410156"/>
       <use xlink:href="#DejaVuSerif-35" x="159.033203"/>
      </g>
     </g>
    </g>
    <g id="text_14">
     <!-- $\varphi/\varphi^*$ -->
     <g transform="translate(32.9175 195.54) rotate(-90) scale(0.16 -0.16)">
      <defs>
       <path id="Cmmi10-27" d="M 1044 -1216 
Q 1044 -1191 1056 -1141 
L 1416 -13 
Q 938 106 628 428 
Q 319 750 319 1216 
Q 319 1450 406 1744 
Q 494 2038 631 2302 
Q 769 2566 928 2741 
Q 966 2759 972 2759 
L 1050 2759 
Q 1069 2759 1084 2740 
Q 1100 2722 1100 2700 
Q 1100 2675 1088 2663 
Q 981 2547 879 2380 
Q 778 2213 698 2028 
Q 619 1844 566 1641 
Q 513 1438 513 1288 
Q 513 909 814 676 
Q 1116 444 1528 366 
L 1709 941 
Q 1828 1313 1945 1605 
Q 2063 1897 2239 2176 
Q 2416 2456 2666 2642 
Q 2916 2828 3225 2828 
Q 3469 2828 3633 2706 
Q 3797 2584 3876 2381 
Q 3956 2178 3956 1947 
Q 3956 1566 3787 1202 
Q 3619 838 3325 548 
Q 3031 259 2662 93 
Q 2294 -72 1919 -72 
Q 1869 -69 1811 -66 
Q 1753 -63 1716 -63 
L 1503 -1178 
Q 1484 -1272 1407 -1333 
Q 1331 -1394 1234 -1394 
Q 1156 -1394 1100 -1345 
Q 1044 -1297 1044 -1216 
z
M 1784 331 
Q 1856 325 1991 325 
Q 2388 325 2798 520 
Q 3209 716 3479 1056 
Q 3750 1397 3750 1797 
Q 3750 1978 3676 2122 
Q 3603 2266 3470 2348 
Q 3338 2431 3163 2431 
Q 2666 2431 2331 1950 
Q 1997 1469 1894 916 
L 1784 331 
z
" transform="scale(0.015625)"/>
       <path id="Cmsy10-a4" d="M 603 813 
Q 531 813 473 873 
Q 416 934 416 1006 
Q 416 1116 506 1159 
L 1428 1600 
L 506 2034 
Q 416 2072 416 2188 
Q 416 2259 473 2320 
Q 531 2381 603 2381 
Q 650 2381 691 2350 
L 1509 1753 
L 1416 2797 
Q 1416 2875 1469 2925 
Q 1522 2975 1600 2975 
Q 1675 2975 1726 2928 
Q 1778 2881 1778 2809 
L 1778 2797 
L 1684 1753 
L 2503 2350 
Q 2544 2381 2591 2381 
Q 2669 2381 2723 2320 
Q 2778 2259 2778 2188 
Q 2778 2072 2688 2034 
L 1766 1600 
L 2688 1159 
Q 2778 1116 2778 1006 
Q 2778 934 2723 873 
Q 2669 813 2591 813 
Q 2544 813 2503 844 
L 1684 1441 
L 1778 403 
L 1778 384 
Q 1778 313 1723 266 
Q 1669 219 1600 219 
Q 1525 219 1470 270 
Q 1416 322 1416 397 
L 1509 1441 
L 691 844 
Q 650 813 603 813 
z
" transform="scale(0.015625)"/>
      </defs>
      <use xlink:href="#Cmmi10-27"/>
      <use xlink:href="#Cmmi10-3d" transform="translate(65.380859 0)"/>
      <use xlink:href="#Cmmi10-27" transform="translate(115.380859 0)"/>
      <use xlink:href="#Cmsy10-a4" transform="translate(199.356016 38.264063) scale(0.7)"/>
     </g>
    </g>
   </g>
   <g id="line2d_13">
    <path d="M 108.573815 175.220068 
L 118.347593 146.447215 
L 123.467191 132.049847 
L 127.888662 120.270163 
L 131.612006 110.951785 
L 135.102641 102.804696 
L 138.360567 95.780451 
L 141.385785 89.807992 
L 144.178293 84.800628 
L 146.738092 80.662147 
L 149.065182 77.292004 
L 151.392272 74.309113 
L 153.486653 71.965392 
L 155.581034 69.952427 
L 157.442706 68.446034 
L 159.304378 67.209901 
L 161.16605 66.247157 
L 163.027722 65.56024 
L 164.656685 65.186835 
L 166.285648 65.026675 
L 167.914611 65.08007 
L 169.543574 65.346917 
L 171.172537 65.826699 
L 172.8015 66.518485 
L 174.663172 67.566958 
L 176.524844 68.887916 
L 178.386516 70.478016 
L 180.480897 72.58355 
L 182.575278 75.01786 
L 184.902368 78.09873 
L 187.229458 81.563662 
L 189.789258 85.80228 
L 192.349057 90.468721 
L 195.141565 96.021029 
L 198.166782 102.543831 
L 201.424708 110.110117 
L 204.915343 118.77505 
L 208.871396 129.197851 
L 213.525576 142.123585 
L 219.343301 158.991444 
L 238.192731 214.210298 
L 242.846911 226.833431 
L 246.802964 236.929328 
L 250.293599 245.255747 
L 253.551525 252.466496 
L 256.576742 258.627387 
L 259.36925 263.820607 
L 261.929049 268.138581 
L 264.488848 272.011981 
L 266.815938 275.131832 
L 268.910319 277.60221 
L 271.0047 279.744627 
L 273.099081 281.552221 
L 274.960753 282.873179 
L 276.822425 283.921651 
L 278.684097 284.694983 
L 280.313061 285.144393 
L 281.942024 285.380769 
L 283.570987 285.403653 
L 285.19995 285.213001 
L 286.828913 284.809182 
L 288.457876 284.192979 
L 290.319548 283.230235 
L 292.18122 281.994102 
L 294.042892 280.487709 
L 295.904564 278.714867 
L 297.998945 276.407546 
L 300.093326 273.77609 
L 302.420416 270.48238 
L 304.747506 266.81196 
L 307.307305 262.356765 
L 310.099813 257.021859 
L 313.12503 250.717814 
L 316.382956 243.365992 
L 319.873591 234.904697 
L 323.596935 225.296163 
L 328.018407 213.236175 
L 333.370714 197.928524 
L 341.050111 175.220068 
L 341.050111 175.220068 
" clip-path="url(#p5ce2db8752)" style="fill: none; stroke: #ff0000; stroke-width: 2; stroke-linecap: square"/>
   </g>
   <g id="line2d_14">
    <path d="M 108.573815 65.02 
L 110.202778 65.126784 
L 111.831741 65.446929 
L 113.460704 65.979816 
L 115.089667 66.72441 
L 116.951339 67.832739 
L 118.813011 69.212881 
L 120.674683 70.861343 
L 122.769064 73.031367 
L 124.863445 75.528733 
L 127.190535 78.677737 
L 129.517625 82.208512 
L 132.077424 86.516604 
L 134.637223 91.249101 
L 137.429731 96.869201 
L 140.454948 103.459984 
L 143.712875 111.092622 
L 147.436219 120.420427 
L 151.624981 131.572051 
L 156.51187 145.278129 
L 162.795013 163.632096 
L 178.153807 208.812009 
L 183.040696 222.341563 
L 187.229458 233.293578 
L 190.952803 242.408674 
L 194.210729 249.829701 
L 197.235946 256.204181 
L 200.028454 261.608965 
L 202.820962 266.521888 
L 205.380761 270.569371 
L 207.707851 273.85349 
L 210.034941 276.747569 
L 212.129322 279.009264 
L 214.223703 280.93849 
L 216.085375 282.369229 
L 217.947047 283.528758 
L 219.808719 284.414142 
L 221.437682 284.962189 
L 223.066645 285.297555 
L 224.695608 285.419591 
L 226.324571 285.32806 
L 227.953534 285.023139 
L 229.582497 284.505419 
L 231.21146 283.775904 
L 233.073132 282.684664 
L 234.934805 281.321414 
L 236.796477 279.689607 
L 238.890858 277.537982 
L 240.985239 275.058602 
L 243.312329 271.929026 
L 245.639419 268.41702 
L 248.199218 264.128725 
L 250.759017 259.415043 
L 253.551525 253.814243 
L 256.576742 247.242802 
L 259.834668 239.629028 
L 263.558012 230.320102 
L 267.514065 219.820753 
L 272.168245 206.825804 
L 278.218679 189.217441 
L 295.206437 139.326052 
L 299.860617 126.53811 
L 303.81667 116.265581 
L 307.540014 107.210401 
L 310.79794 99.848638 
L 313.823157 93.534484 
L 316.615665 88.189556 
L 319.175464 83.724641 
L 321.735263 79.69749 
L 324.062353 76.432577 
L 326.389444 73.558314 
L 328.483825 71.314909 
L 330.578206 69.404344 
L 332.439878 67.990457 
L 334.30155 66.847984 
L 336.163222 65.979816 
L 337.792185 65.446929 
L 339.421148 65.126784 
L 341.050111 65.02 
L 341.050111 65.02 
" clip-path="url(#p5ce2db8752)" style="fill: none; stroke: #000000; stroke-width: 2; stroke-linecap: square"/>
   </g>
   <g id="patch_3">
    <path d="M 96.95 296.44 
L 96.95 54 
" style="fill: none; stroke: #000000; stroke-width: 0.8; stroke-linejoin: miter; stroke-linecap: square"/>
   </g>
   <g id="patch_4">
    <path d="M 352.673926 296.44 
L 352.673926 54 
" style="fill: none; stroke: #000000; stroke-width: 0.8; stroke-linejoin: miter; stroke-linecap: square"/>
   </g>
   <g id="patch_5">
    <path d="M 96.95 296.44 
L 352.673926 296.44 
" style="fill: none; stroke: #000000; stroke-width: 0.8; stroke-linejoin: miter; stroke-linecap: square"/>
   </g>
   <g id="patch_6">
    <path d="M 96.95 54 
L 352.673926 54 
" style="fill: none; stroke: #000000; stroke-width: 0.8; stroke-linejoin: miter; stroke-linecap: square"/>
   </g>
   <g id="legend_1">
    <g id="patch_7">
     <path d="M 108.15 288.44 
L 176.47 288.44 
Q 179.67 288.44 179.67 285.24 
L 179.67 239.485 
Q 179.67 236.285 176.47 236.285 
L 108.15 236.285 
Q 104.95 236.285 104.95 239.485 
L 104.95 285.24 
Q 104.95 288.44 108.15 288.44 
z
" style="fill: #ffffff; opacity: 0.8; stroke: #cccccc; stroke-linejoin: miter"/>
    </g>
    <g id="line2d_15">
     <path d="M 111.35 249.2425 
L 127.35 249.2425 
L 143.35 249.2425 
" style="fill: none; stroke: #ff0000; stroke-width: 2; stroke-linecap: square"/>
    </g>
    <g id="text_15">
     <!-- $\varphi_1$ -->
     <g transform="translate(156.15 254.8425) scale(0.16 -0.16)">
      <defs>
       <path id="Cmr10-31" d="M 594 0 
L 594 225 
Q 1394 225 1394 428 
L 1394 3788 
Q 1063 3628 556 3628 
L 556 3853 
Q 1341 3853 1741 4263 
L 1831 4263 
Q 1853 4263 1873 4245 
Q 1894 4228 1894 4206 
L 1894 428 
Q 1894 225 2694 225 
L 2694 0 
L 594 0 
z
" transform="scale(0.015625)"/>
      </defs>
      <use xlink:href="#Cmmi10-27" transform="translate(0 0.8125)"/>
      <use xlink:href="#Cmr10-31" transform="translate(65.380859 -16.19375) scale(0.7)"/>
     </g>
    </g>
    <g id="line2d_16">
     <path d="M 111.35 272.92 
L 127.35 272.92 
L 143.35 272.92 
" style="fill: none; stroke: #000000; stroke-width: 2; stroke-linecap: square"/>
    </g>
    <g id="text_16">
     <!-- $\varphi_2$ -->
     <g transform="translate(156.15 278.52) scale(0.16 -0.16)">
      <defs>
       <path id="Cmr10-32" d="M 319 0 
L 319 172 
Q 319 188 331 206 
L 1325 1306 
Q 1550 1550 1690 1715 
Q 1831 1881 1968 2097 
Q 2106 2313 2186 2536 
Q 2266 2759 2266 3009 
Q 2266 3272 2169 3511 
Q 2072 3750 1880 3894 
Q 1688 4038 1416 4038 
Q 1138 4038 916 3870 
Q 694 3703 603 3438 
Q 628 3444 672 3444 
Q 816 3444 917 3347 
Q 1019 3250 1019 3097 
Q 1019 2950 917 2848 
Q 816 2747 672 2747 
Q 522 2747 420 2851 
Q 319 2956 319 3097 
Q 319 3338 409 3548 
Q 500 3759 670 3923 
Q 841 4088 1055 4175 
Q 1269 4263 1509 4263 
Q 1875 4263 2190 4108 
Q 2506 3953 2690 3670 
Q 2875 3388 2875 3009 
Q 2875 2731 2753 2481 
Q 2631 2231 2440 2026 
Q 2250 1822 1953 1562 
Q 1656 1303 1563 1216 
L 838 519 
L 1453 519 
Q 1906 519 2211 526 
Q 2516 534 2534 550 
Q 2609 631 2688 1141 
L 2875 1141 
L 2694 0 
L 319 0 
z
" transform="scale(0.015625)"/>
      </defs>
      <use xlink:href="#Cmmi10-27" transform="translate(0 0.8125)"/>
      <use xlink:href="#Cmr10-32" transform="translate(65.380859 -16.19375) scale(0.7)"/>
     </g>
    </g>
   </g>
  </g>
  <g id="axes_2">
   <g id="patch_8">
    <path d="M 445.745 296.44 
L 701.468926 296.44 
L 701.468926 54 
L 445.745 54 
z
" style="fill: #ffffff"/>
   </g>
   <g id="matplotlib.axis_3">
    <g id="xtick_6">
     <g id="line2d_17">
      <g>
       <use xlink:href="#m143c17d625" x="457.36824" y="296.44" style="stroke: #000000; stroke-width: 0.8"/>
      </g>
     </g>
     <g id="text_17">
      <!-- −1.0 -->
      <g transform="translate(437.94199 315.5975) scale(0.16 -0.16)">
       <use xlink:href="#DejaVuSerif-2212"/>
       <use xlink:href="#DejaVuSerif-31" x="83.789062"/>
       <use xlink:href="#DejaVuSerif-2e" x="147.412109"/>
       <use xlink:href="#DejaVuSerif-30" x="179.199219"/>
      </g>
     </g>
    </g>
    <g id="xtick_7">
     <g id="line2d_18">
      <g>
       <use xlink:href="#m143c17d625" x="515.487458" y="296.44" style="stroke: #000000; stroke-width: 0.8"/>
      </g>
     </g>
     <g id="text_18">
      <!-- −0.5 -->
      <g transform="translate(496.061208 315.5975) scale(0.16 -0.16)">
       <use xlink:href="#DejaVuSerif-2212"/>
       <use xlink:href="#DejaVuSerif-30" x="83.789062"/>
       <use xlink:href="#DejaVuSerif-2e" x="147.412109"/>
       <use xlink:href="#DejaVuSerif-35" x="179.199219"/>
      </g>
     </g>
    </g>
    <g id="xtick_8">
     <g id="line2d_19">
      <g>
       <use xlink:href="#m143c17d625" x="573.606675" y="296.44" style="stroke: #000000; stroke-width: 0.8"/>
      </g>
     </g>
     <g id="text_19">
      <!-- 0.0 -->
      <g transform="translate(560.884175 315.5975) scale(0.16 -0.16)">
       <use xlink:href="#DejaVuSerif-30"/>
       <use xlink:href="#DejaVuSerif-2e" x="63.623047"/>
       <use xlink:href="#DejaVuSerif-30" x="95.410156"/>
      </g>
     </g>
    </g>
    <g id="xtick_9">
     <g id="line2d_20">
      <g>
       <use xlink:href="#m143c17d625" x="631.725893" y="296.44" style="stroke: #000000; stroke-width: 0.8"/>
      </g>
     </g>
     <g id="text_20">
      <!-- 0.5 -->
      <g transform="translate(619.003393 315.5975) scale(0.16 -0.16)">
       <use xlink:href="#DejaVuSerif-30"/>
       <use xlink:href="#DejaVuSerif-2e" x="63.623047"/>
       <use xlink:href="#DejaVuSerif-35" x="95.410156"/>
      </g>
     </g>
    </g>
    <g id="xtick_10">
     <g id="line2d_21">
      <g>
       <use xlink:href="#m143c17d625" x="689.845111" y="296.44" style="stroke: #000000; stroke-width: 0.8"/>
      </g>
     </g>
     <g id="text_21">
      <!-- 1.0 -->
      <g transform="translate(677.122611 315.5975) scale(0.16 -0.16)">
       <use xlink:href="#DejaVuSerif-31"/>
       <use xlink:href="#DejaVuSerif-2e" x="63.623047"/>
       <use xlink:href="#DejaVuSerif-30" x="95.410156"/>
      </g>
     </g>
    </g>
    <g id="text_22">
     <!-- $\varphi_1/\varphi^*$ -->
     <g transform="translate(550.006963 334.925) scale(0.16 -0.16)">
      <use xlink:href="#Cmmi10-27"/>
      <use xlink:href="#Cmr10-31" transform="translate(65.380859 -17.00625) scale(0.7)"/>
      <use xlink:href="#Cmmi10-3d" transform="translate(106.758203 0)"/>
      <use xlink:href="#Cmmi10-27" transform="translate(156.758203 0)"/>
      <use xlink:href="#Cmsy10-a4" transform="translate(240.733359 38.264063) scale(0.7)"/>
     </g>
    </g>
   </g>
   <g id="matplotlib.axis_4">
    <g id="ytick_8">
     <g id="line2d_22">
      <g>
       <use xlink:href="#m501592f97b" x="445.745" y="285.420136" style="stroke: #000000; stroke-width: 0.8"/>
      </g>
     </g>
     <g id="text_23">
      <!-- −1.0 -->
      <g transform="translate(399.8925 291.498886) scale(0.16 -0.16)">
       <use xlink:href="#DejaVuSerif-2212"/>
       <use xlink:href="#DejaVuSerif-31" x="83.789062"/>
       <use xlink:href="#DejaVuSerif-2e" x="147.412109"/>
       <use xlink:href="#DejaVuSerif-30" x="179.199219"/>
      </g>
     </g>
    </g>
    <g id="ytick_9">
     <g id="line2d_23">
      <g>
       <use xlink:href="#m501592f97b" x="445.745" y="230.320068" style="stroke: #000000; stroke-width: 0.8"/>
      </g>
     </g>
     <g id="text_24">
      <!-- −0.5 -->
      <g transform="translate(399.8925 236.398818) scale(0.16 -0.16)">
       <use xlink:href="#DejaVuSerif-2212"/>
       <use xlink:href="#DejaVuSerif-30" x="83.789062"/>
       <use xlink:href="#DejaVuSerif-2e" x="147.412109"/>
       <use xlink:href="#DejaVuSerif-35" x="179.199219"/>
      </g>
     </g>
    </g>
    <g id="ytick_10">
     <g id="line2d_24">
      <g>
       <use xlink:href="#m501592f97b" x="445.745" y="175.22" style="stroke: #000000; stroke-width: 0.8"/>
      </g>
     </g>
     <g id="text_25">
      <!-- 0.0 -->
      <g transform="translate(413.3 181.29875) scale(0.16 -0.16)">
       <use xlink:href="#DejaVuSerif-30"/>
       <use xlink:href="#DejaVuSerif-2e" x="63.623047"/>
       <use xlink:href="#DejaVuSerif-30" x="95.410156"/>
      </g>
     </g>
    </g>
    <g id="ytick_11">
     <g id="line2d_25">
      <g>
       <use xlink:href="#m501592f97b" x="445.745" y="120.119932" style="stroke: #000000; stroke-width: 0.8"/>
      </g>
     </g>
     <g id="text_26">
      <!-- 0.5 -->
      <g transform="translate(413.3 126.198682) scale(0.16 -0.16)">
       <use xlink:href="#DejaVuSerif-30"/>
       <use xlink:href="#DejaVuSerif-2e" x="63.623047"/>
       <use xlink:href="#DejaVuSerif-35" x="95.410156"/>
      </g>
     </g>
    </g>
    <g id="ytick_12">
     <g id="line2d_26">
      <g>
       <use xlink:href="#m501592f97b" x="445.745" y="65.019864" style="stroke: #000000; stroke-width: 0.8"/>
      </g>
     </g>
     <g id="text_27">
      <!-- 1.0 -->
      <g transform="translate(413.3 71.098614) scale(0.16 -0.16)">
       <use xlink:href="#DejaVuSerif-31"/>
       <use xlink:href="#DejaVuSerif-2e" x="63.623047"/>
       <use xlink:href="#DejaVuSerif-30" x="95.410156"/>
      </g>
     </g>
    </g>
    <g id="text_28">
     <!-- $\varphi_2/\varphi^*$ -->
     <g transform="translate(391.8925 198.82) rotate(-90) scale(0.16 -0.16)">
      <use xlink:href="#Cmmi10-27"/>
      <use xlink:href="#Cmr10-32" transform="translate(65.380859 -17.00625) scale(0.7)"/>
      <use xlink:href="#Cmmi10-3d" transform="translate(106.758203 0)"/>
      <use xlink:href="#Cmmi10-27" transform="translate(156.758203 0)"/>
      <use xlink:href="#Cmsy10-a4" transform="translate(240.733359 38.264063) scale(0.7)"/>
     </g>
    </g>
   </g>
   <g id="line2d_27">
    <path d="M 689.845111 175.22 
L 689.732476 170.36986 
L 689.394788 165.52912 
L 688.832703 160.707161 
L 688.047309 155.913328 
L 687.040128 151.156911 
L 685.813114 146.447129 
L 684.368642 141.793109 
L 682.709514 137.20387 
L 680.838943 132.688306 
L 678.760557 128.255169 
L 676.478381 123.91305 
L 673.99684 119.670364 
L 671.320742 115.535334 
L 668.455274 111.515973 
L 665.405989 107.62007 
L 662.178797 103.855176 
L 658.779951 100.228588 
L 655.216039 96.747333 
L 651.493968 93.418159 
L 647.620951 90.247517 
L 643.604494 87.241552 
L 639.452381 84.406089 
L 635.172659 81.746625 
L 630.773622 79.268312 
L 626.263795 76.975953 
L 621.651918 74.873993 
L 616.946929 72.966503 
L 612.157947 71.257181 
L 607.294252 69.749339 
L 602.36527 68.4459 
L 597.380555 67.349389 
L 592.349765 66.461932 
L 587.282651 65.785249 
L 582.189033 65.320651 
L 577.078783 65.069038 
L 571.961803 65.030898 
L 566.848011 65.206305 
L 561.747318 65.594919 
L 556.669608 66.195987 
L 551.624722 67.008344 
L 546.622438 68.030415 
L 541.672448 69.260221 
L 536.784348 70.695376 
L 531.967609 72.333101 
L 527.231567 74.170222 
L 522.5854 76.203177 
L 518.038113 78.428027 
L 513.598518 80.84046 
L 509.275218 83.435802 
L 505.076594 86.209021 
L 501.010781 89.154744 
L 497.085659 92.267262 
L 493.308835 95.540543 
L 489.687629 98.968242 
L 486.229058 102.543718 
L 482.939825 106.260041 
L 479.826305 110.110009 
L 476.894532 114.08616 
L 474.150187 118.180789 
L 471.59859 122.385959 
L 469.244684 126.693523 
L 467.093033 131.095131 
L 465.147805 135.582253 
L 463.412771 140.146193 
L 461.891293 144.778107 
L 460.58632 149.469017 
L 459.500381 154.209832 
L 458.635581 158.991365 
L 457.993595 163.80435 
L 457.575668 168.639458 
L 457.382609 173.487319 
L 457.414793 178.338538 
L 457.672157 183.183713 
L 458.154203 188.013455 
L 458.859996 192.818403 
L 459.788169 197.589245 
L 460.936922 202.316735 
L 462.30403 206.991712 
L 463.886843 211.605115 
L 465.682293 216.148004 
L 467.686901 220.611574 
L 469.896783 224.987175 
L 472.307654 229.266326 
L 474.914843 233.440736 
L 477.713298 237.502314 
L 480.697594 241.443189 
L 483.861948 245.255722 
L 487.200229 248.932527 
L 490.705965 252.466476 
L 494.372363 255.850721 
L 498.192317 259.078703 
L 502.158425 262.144167 
L 506.263 265.041171 
L 510.498087 267.764102 
L 514.855479 270.307682 
L 519.326731 272.666981 
L 523.903177 274.837428 
L 528.575949 276.814816 
L 533.335991 278.595313 
L 538.174078 280.175467 
L 543.080833 281.552218 
L 548.046748 282.722897 
L 553.062197 283.685234 
L 558.117462 284.437366 
L 563.202745 284.977833 
L 568.308191 285.30559 
L 573.423906 285.42 
L 578.539974 285.320842 
L 583.646482 285.008308 
L 588.733533 284.483005 
L 593.791268 283.745949 
L 598.809885 282.798569 
L 603.779658 281.642701 
L 608.690956 280.280586 
L 613.53426 278.714863 
L 618.300184 276.948567 
L 622.979492 274.98512 
L 627.563116 272.828328 
L 632.042172 270.482371 
L 636.407979 267.951794 
L 640.652077 265.241504 
L 644.766241 262.356751 
L 648.742498 259.303126 
L 652.573141 256.086549 
L 656.250746 252.713251 
L 659.768187 249.189772 
L 663.118647 245.522938 
L 666.295632 241.719858 
L 669.292986 237.7879 
L 672.104899 233.734685 
L 674.725922 229.568069 
L 677.150975 225.296126 
L 679.37536 220.927135 
L 681.394764 216.469564 
L 683.205274 211.932051 
L 684.803382 207.323389 
L 686.185991 202.652512 
L 687.35042 197.928469 
L 688.294413 193.160418 
L 689.016141 188.357598 
L 689.514205 183.529318 
L 689.787639 178.684934 
L 689.845111 175.22 
L 689.845111 175.22 
" clip-path="url(#pb621afcecd)" style="fill: none; stroke-dasharray: 7.4,3.2; stroke-dashoffset: 0; stroke: #000000; stroke-width: 2"/>
   </g>
   <g id="line2d_28">
    <path d="M 664.035085 175.22 
L 663.920641 170.908202 
L 663.5776 166.607318 
L 663.006829 162.328235 
L 662.209773 158.081782 
L 661.18845 153.878708 
L 659.945444 149.729652 
L 658.483903 145.645116 
L 656.807525 141.635439 
L 654.920554 137.710768 
L 652.827765 133.88104 
L 650.534456 130.155946 
L 648.046432 126.544915 
L 645.36999 123.057089 
L 642.511905 119.701294 
L 639.47941 116.486025 
L 636.280182 113.419421 
L 632.922318 110.509243 
L 629.414318 107.762857 
L 625.76506 105.187215 
L 621.983782 102.788836 
L 618.080055 100.573791 
L 614.063759 98.547686 
L 609.94506 96.71565 
L 605.734383 95.08232 
L 601.442387 93.65183 
L 597.079934 92.427801 
L 592.658067 91.413332 
L 588.187978 90.610989 
L 583.680982 90.022803 
L 579.148486 89.650265 
L 574.601963 89.494315 
L 570.052921 89.55535 
L 565.512874 89.833215 
L 560.993313 90.327206 
L 556.505679 91.036073 
L 552.06133 91.958022 
L 547.671515 93.090719 
L 543.347346 94.431297 
L 539.099768 95.976363 
L 534.939532 97.722006 
L 530.877168 99.663808 
L 526.922958 101.796853 
L 523.086912 104.115744 
L 519.378738 106.614609 
L 515.807824 109.287125 
L 512.383207 112.126526 
L 509.113555 115.125627 
L 506.007145 118.276834 
L 503.071839 121.572174 
L 500.315066 125.003303 
L 497.743806 128.561539 
L 495.364566 132.237874 
L 493.183367 136.023002 
L 491.205732 139.907345 
L 489.436666 143.881068 
L 487.880646 147.934115 
L 486.541611 152.056227 
L 485.422951 156.236969 
L 484.527496 160.46576 
L 483.857514 164.731897 
L 483.4147 169.02458 
L 483.200175 173.332945 
L 483.214482 177.646086 
L 483.457584 181.953086 
L 483.928868 186.243044 
L 484.627138 190.505101 
L 485.550629 194.72847 
L 486.697003 198.902459 
L 488.063358 203.016505 
L 489.646235 207.060194 
L 491.441628 211.02329 
L 493.444993 214.895763 
L 495.651259 218.667811 
L 498.054841 222.329887 
L 500.649656 225.87272 
L 503.429136 229.287344 
L 506.386246 232.565116 
L 509.5135 235.697739 
L 512.802983 238.677284 
L 516.246369 241.496209 
L 519.834943 244.147379 
L 523.559621 246.624085 
L 527.410975 248.920056 
L 531.379257 251.029482 
L 535.454422 252.947022 
L 539.626157 254.667825 
L 543.883901 256.187533 
L 548.216878 257.502301 
L 552.614121 258.6088 
L 557.064498 259.50423 
L 561.556746 260.186325 
L 566.079495 260.653357 
L 570.621295 260.904145 
L 575.170652 260.938054 
L 579.716051 260.754999 
L 584.245985 260.355441 
L 588.74899 259.740394 
L 593.213668 258.911413 
L 597.628718 257.870597 
L 601.982964 256.62058 
L 606.265386 255.164527 
L 610.465143 253.506122 
L 614.571607 251.649564 
L 618.574382 249.599551 
L 622.463338 247.361273 
L 626.22863 244.940395 
L 629.860729 242.343044 
L 633.35044 239.575795 
L 636.688931 236.645653 
L 639.867752 233.560033 
L 642.878856 230.326746 
L 645.714622 226.953976 
L 648.367873 223.450259 
L 650.831892 219.824465 
L 653.100443 216.08577 
L 655.167784 212.243638 
L 657.028681 208.307794 
L 658.678426 204.2882 
L 660.112841 200.19503 
L 661.328297 196.038645 
L 662.321716 191.829565 
L 663.090585 187.578443 
L 663.632957 183.29604 
L 663.94746 178.993196 
L 664.035085 175.22 
L 664.035085 175.22 
" clip-path="url(#pb621afcecd)" style="fill: none; stroke: #008000; stroke-width: 2; stroke-linecap: square"/>
   </g>
   <g id="patch_9">
    <path d="M 445.745 296.44 
L 445.745 54 
" style="fill: none; stroke: #000000; stroke-width: 0.8; stroke-linejoin: miter; stroke-linecap: square"/>
   </g>
   <g id="patch_10">
    <path d="M 701.468926 296.44 
L 701.468926 54 
" style="fill: none; stroke: #000000; stroke-width: 0.8; stroke-linejoin: miter; stroke-linecap: square"/>
   </g>
   <g id="patch_11">
    <path d="M 445.745 296.44 
L 701.468926 296.44 
" style="fill: none; stroke: #000000; stroke-width: 0.8; stroke-linejoin: miter; stroke-linecap: square"/>
   </g>
   <g id="patch_12">
    <path d="M 445.745 54 
L 701.468926 54 
" style="fill: none; stroke: #000000; stroke-width: 0.8; stroke-linejoin: miter; stroke-linecap: square"/>
   </g>
   <g id="legend_2">
    <g id="patch_13">
     <path d="M 518.246963 201.7775 
L 628.966963 201.7775 
Q 632.166963 201.7775 632.166963 198.5775 
L 632.166963 151.8625 
Q 632.166963 148.6625 628.966963 148.6625 
L 518.246963 148.6625 
Q 515.046963 148.6625 515.046963 151.8625 
L 515.046963 198.5775 
Q 515.046963 201.7775 518.246963 201.7775 
z
" style="fill: #ffffff; opacity: 0.8; stroke: #cccccc; stroke-linejoin: miter"/>
    </g>
    <g id="line2d_29">
     <path d="M 521.446963 161.62 
L 537.446963 161.62 
L 553.446963 161.62 
" style="fill: none; stroke-dasharray: 7.4,3.2; stroke-dashoffset: 0; stroke: #000000; stroke-width: 2"/>
    </g>
    <g id="text_29">
     <!-- $|\varphi| = \varphi^*$ -->
     <g transform="translate(566.246963 167.22) scale(0.16 -0.16)">
      <defs>
       <path id="Cmsy10-6a" d="M 763 -1484 
L 763 4684 
Q 763 4734 800 4767 
Q 838 4800 891 4800 
Q 938 4800 978 4767 
Q 1019 4734 1019 4684 
L 1019 -1484 
Q 1019 -1534 978 -1567 
Q 938 -1600 891 -1600 
Q 838 -1600 800 -1567 
Q 763 -1534 763 -1484 
z
" transform="scale(0.015625)"/>
       <path id="Cmr10-3d" d="M 481 850 
Q 428 850 393 890 
Q 359 931 359 978 
Q 359 1031 393 1068 
Q 428 1106 481 1106 
L 4500 1106 
Q 4547 1106 4581 1068 
Q 4616 1031 4616 978 
Q 4616 931 4581 890 
Q 4547 850 4500 850 
L 481 850 
z
M 481 2094 
Q 428 2094 393 2131 
Q 359 2169 359 2222 
Q 359 2269 393 2309 
Q 428 2350 481 2350 
L 4500 2350 
Q 4547 2350 4581 2309 
Q 4616 2269 4616 2222 
Q 4616 2169 4581 2131 
Q 4547 2094 4500 2094 
L 481 2094 
z
" transform="scale(0.015625)"/>
      </defs>
      <use xlink:href="#Cmsy10-6a"/>
      <use xlink:href="#Cmmi10-27" transform="translate(27.685547 0)"/>
      <use xlink:href="#Cmsy10-6a" transform="translate(93.066406 0)"/>
      <use xlink:href="#Cmr10-3d" transform="translate(138.310547 0)"/>
      <use xlink:href="#Cmmi10-27" transform="translate(233.554688 0)"/>
      <use xlink:href="#Cmsy10-a4" transform="translate(317.529844 38.264063) scale(0.7)"/>
     </g>
    </g>
    <g id="line2d_30">
     <path d="M 521.446963 185.7775 
L 537.446963 185.7775 
L 553.446963 185.7775 
" style="fill: none; stroke: #008000; stroke-width: 2; stroke-linecap: square"/>
    </g>
    <g id="text_30">
     <!-- $\varphi_i(x)$ -->
     <g transform="translate(566.246963 191.3775) scale(0.16 -0.16)">
      <defs>
       <path id="Cmmi10-69" d="M 500 459 
Q 500 578 550 709 
L 1069 2088 
Q 1153 2322 1153 2472 
Q 1153 2663 1013 2663 
Q 759 2663 595 2402 
Q 431 2141 353 1819 
Q 341 1778 300 1778 
L 225 1778 
Q 172 1778 172 1838 
L 172 1856 
Q 275 2238 487 2533 
Q 700 2828 1025 2828 
Q 1253 2828 1411 2678 
Q 1569 2528 1569 2297 
Q 1569 2178 1516 2047 
L 997 672 
Q 909 459 909 288 
Q 909 97 1056 97 
Q 1306 97 1473 364 
Q 1641 631 1709 941 
Q 1722 978 1759 978 
L 1838 978 
Q 1863 978 1878 961 
Q 1894 944 1894 922 
Q 1894 916 1888 903 
Q 1800 541 1583 234 
Q 1366 -72 1044 -72 
Q 819 -72 659 83 
Q 500 238 500 459 
z
M 1222 3878 
Q 1222 4013 1334 4122 
Q 1447 4231 1581 4231 
Q 1691 4231 1761 4164 
Q 1831 4097 1831 3994 
Q 1831 3850 1717 3742 
Q 1603 3634 1466 3634 
Q 1363 3634 1292 3704 
Q 1222 3775 1222 3878 
z
" transform="scale(0.015625)"/>
       <path id="Cmr10-28" d="M 1984 -1588 
Q 1628 -1306 1370 -942 
Q 1113 -578 948 -165 
Q 784 247 703 697 
Q 622 1147 622 1600 
Q 622 2059 703 2509 
Q 784 2959 951 3375 
Q 1119 3791 1378 4153 
Q 1638 4516 1984 4788 
Q 1984 4800 2016 4800 
L 2075 4800 
Q 2094 4800 2109 4783 
Q 2125 4766 2125 4744 
Q 2125 4716 2113 4703 
Q 1800 4397 1592 4047 
Q 1384 3697 1257 3301 
Q 1131 2906 1075 2482 
Q 1019 2059 1019 1600 
Q 1019 -434 2106 -1491 
Q 2125 -1509 2125 -1544 
Q 2125 -1559 2108 -1579 
Q 2091 -1600 2075 -1600 
L 2016 -1600 
Q 1984 -1600 1984 -1588 
z
" transform="scale(0.015625)"/>
       <path id="Cmr10-29" d="M 416 -1600 
Q 359 -1600 359 -1544 
Q 359 -1516 372 -1503 
Q 1466 -434 1466 1600 
Q 1466 3634 384 4691 
Q 359 4706 359 4744 
Q 359 4766 376 4783 
Q 394 4800 416 4800 
L 475 4800 
Q 494 4800 506 4788 
Q 966 4425 1272 3906 
Q 1578 3388 1720 2800 
Q 1863 2213 1863 1600 
Q 1863 1147 1786 708 
Q 1709 269 1542 -157 
Q 1375 -584 1119 -945 
Q 863 -1306 506 -1588 
Q 494 -1600 475 -1600 
L 416 -1600 
z
" transform="scale(0.015625)"/>
      </defs>
      <use xlink:href="#Cmmi10-27"/>
      <use xlink:href="#Cmmi10-69" transform="translate(65.380859 -17.00625) scale(0.7)"/>
      <use xlink:href="#Cmr10-28" transform="translate(95.854883 0)"/>
      <use xlink:href="#Cmmi10-78" transform="translate(134.673242 0)"/>
      <use xlink:href="#Cmr10-29" transform="translate(191.75332 0)"/>
     </g>
    </g>
   </g>
  </g>
  <g id="text_31">
   <!-- $\bar\varphi = 0$ -->
   <g transform="translate(338.016 21.558) scale(0.192 -0.192)">
    <defs>
     <path id="Cmr10-b9" d="M 441 3553 
L 441 3775 
L 2753 3775 
L 2753 3553 
L 441 3553 
z
" transform="scale(0.015625)"/>
     <path id="Cmr10-30" d="M 1600 -141 
Q 816 -141 533 504 
Q 250 1150 250 2041 
Q 250 2597 351 3087 
Q 453 3578 754 3920 
Q 1056 4263 1600 4263 
Q 2022 4263 2290 4056 
Q 2559 3850 2700 3523 
Q 2841 3197 2892 2823 
Q 2944 2450 2944 2041 
Q 2944 1491 2842 1011 
Q 2741 531 2444 195 
Q 2147 -141 1600 -141 
z
M 1600 25 
Q 1956 25 2131 390 
Q 2306 756 2347 1200 
Q 2388 1644 2388 2144 
Q 2388 2625 2347 3031 
Q 2306 3438 2132 3767 
Q 1959 4097 1600 4097 
Q 1238 4097 1063 3765 
Q 888 3434 847 3029 
Q 806 2625 806 2144 
Q 806 1788 823 1472 
Q 841 1156 916 820 
Q 991 484 1158 254 
Q 1325 25 1600 25 
z
" transform="scale(0.015625)"/>
    </defs>
    <use xlink:href="#Cmr10-b9" transform="translate(10.316406 1.5625)"/>
    <use xlink:href="#Cmmi10-27" transform="translate(0 0.390625)"/>
    <use xlink:href="#Cmr10-3d" transform="translate(82.939453 0.390625)"/>
    <use xlink:href="#Cmr10-30" transform="translate(178.183594 0.390625)"/>
   </g>
  </g>
 </g>
 <defs>
  <clipPath id="p5ce2db8752">
   <rect x="96.95" y="54" width="255.723926" height="242.44"/>
  </clipPath>
  <clipPath id="pb621afcecd">
   <rect x="445.745" y="54" width="255.723926" height="242.44"/>
  </clipPath>
 </defs>
</svg>
