<?xml version="1.0" encoding="utf-8" standalone="no"?>
<!DOCTYPE svg PUBLIC "-//W3C//DTD SVG 1.1//EN"
  "http://www.w3.org/Graphics/SVG/1.1/DTD/svg11.dtd">
<svg xmlns:xlink="http://www.w3.org/1999/xlink" width="695.896929pt" height="346.125pt" viewBox="0 0 695.896929 346.125" xmlns="http://www.w3.org/2000/svg" version="1.1">
 <metadata>
  <rdf:RDF xmlns:dc="http://purl.org/dc/elements/1.1/" xmlns:cc="http://creativecommons.org/ns#" xmlns:rdf="http://www.w3.org/1999/02/22-rdf-syntax-ns#">
   <cc:Work>
    <dc:type rdf:resource="http://purl.org/dc/dcmitype/StillImage"/>
    <dc:date>2023-07-06T17:08:48.172793</dc:date>
    <dc:format>image/svg+xml</dc:format>
    <dc:creator>
     <cc:Agent>
      <dc:title>Matplotlib v3.7.1, https://matplotlib.org/</dc:title>
     </cc:Agent>
    </dc:creator>
   </cc:Work>
  </rdf:RDF>
 </metadata>
 <defs>
  <style type="text/css">*{stroke-linejoin: round; stroke-linecap: butt}</style>
 </defs>
 <g id="figure_1">
  <g id="patch_1">
   <path d="M 0 346.125 
L 695.896929 346.125 
L 695.896929 0 
L 0 0 
z
" style="fill: #ffffff"/>
  </g>
  <g id="axes_1">
   <g id="patch_2">
    <path d="M 73.0525 296.44 
L 333.906426 296.44 
L 333.906426 54 
L 73.0525 54 
z
" style="fill: #ffffff"/>
   </g>
   <g id="matplotlib.axis_1">
    <g id="xtick_1">
     <g id="line2d_1">
      <defs>
       <path id="mdaf6f9ddd4" d="M 0 0 
L 0 3.5 
" style="stroke: #000000; stroke-width: 0.8"/>
      </defs>
      <g>
       <use xlink:href="#mdaf6f9ddd4" x="84.909497" y="296.44" style="stroke: #000000; stroke-width: 0.8"/>
      </g>
     </g>
     <g id="text_1">
      <!-- 0.00 -->
      <g transform="translate(67.096997 315.5975) scale(0.16 -0.16)">
       <defs>
        <path id="DejaVuSerif-30" d="M 2034 219 
Q 2513 219 2750 744 
Q 2988 1269 2988 2328 
Q 2988 3391 2750 3916 
Q 2513 4441 2034 4441 
Q 1556 4441 1318 3916 
Q 1081 3391 1081 2328 
Q 1081 1269 1318 744 
Q 1556 219 2034 219 
z
M 2034 -91 
Q 1275 -91 848 546 
Q 422 1184 422 2328 
Q 422 3475 848 4112 
Q 1275 4750 2034 4750 
Q 2797 4750 3222 4112 
Q 3647 3475 3647 2328 
Q 3647 1184 3222 546 
Q 2797 -91 2034 -91 
z
" transform="scale(0.015625)"/>
        <path id="DejaVuSerif-2e" d="M 603 325 
Q 603 500 722 622 
Q 841 744 1019 744 
Q 1191 744 1312 622 
Q 1434 500 1434 325 
Q 1434 153 1312 31 
Q 1191 -91 1019 -91 
Q 841 -91 722 29 
Q 603 150 603 325 
z
" transform="scale(0.015625)"/>
       </defs>
       <use xlink:href="#DejaVuSerif-30"/>
       <use xlink:href="#DejaVuSerif-2e" x="63.623047"/>
       <use xlink:href="#DejaVuSerif-30" x="95.410156"/>
       <use xlink:href="#DejaVuSerif-30" x="159.033203"/>
      </g>
     </g>
    </g>
    <g id="xtick_2">
     <g id="line2d_2">
      <g>
       <use xlink:href="#mdaf6f9ddd4" x="144.19448" y="296.44" style="stroke: #000000; stroke-width: 0.8"/>
      </g>
     </g>
     <g id="text_2">
      <!-- 0.25 -->
      <g transform="translate(126.38198 315.5975) scale(0.16 -0.16)">
       <defs>
        <path id="DejaVuSerif-32" d="M 819 3553 
L 469 3553 
L 469 4384 
Q 803 4563 1142 4656 
Q 1481 4750 1806 4750 
Q 2534 4750 2956 4397 
Q 3378 4044 3378 3438 
Q 3378 2753 2422 1800 
Q 2347 1728 2309 1691 
L 1131 513 
L 3078 513 
L 3078 1088 
L 3444 1088 
L 3444 0 
L 434 0 
L 434 341 
L 1850 1753 
Q 2319 2222 2519 2614 
Q 2719 3006 2719 3438 
Q 2719 3909 2473 4175 
Q 2228 4441 1797 4441 
Q 1350 4441 1106 4219 
Q 863 3997 819 3553 
z
" transform="scale(0.015625)"/>
        <path id="DejaVuSerif-35" d="M 3219 4666 
L 3219 4153 
L 1081 4153 
L 1081 2816 
Q 1244 2928 1461 2984 
Q 1678 3041 1947 3041 
Q 2703 3041 3140 2622 
Q 3578 2203 3578 1478 
Q 3578 738 3136 323 
Q 2694 -91 1894 -91 
Q 1572 -91 1234 -12 
Q 897 66 544 225 
L 544 1131 
L 897 1131 
Q 925 688 1179 453 
Q 1434 219 1894 219 
Q 2388 219 2653 544 
Q 2919 869 2919 1478 
Q 2919 2084 2655 2407 
Q 2391 2731 1894 2731 
Q 1613 2731 1398 2631 
Q 1184 2531 1019 2322 
L 750 2322 
L 750 4666 
L 3219 4666 
z
" transform="scale(0.015625)"/>
       </defs>
       <use xlink:href="#DejaVuSerif-30"/>
       <use xlink:href="#DejaVuSerif-2e" x="63.623047"/>
       <use xlink:href="#DejaVuSerif-32" x="95.410156"/>
       <use xlink:href="#DejaVuSerif-35" x="159.033203"/>
      </g>
     </g>
    </g>
    <g id="xtick_3">
     <g id="line2d_3">
      <g>
       <use xlink:href="#mdaf6f9ddd4" x="203.479463" y="296.44" style="stroke: #000000; stroke-width: 0.8"/>
      </g>
     </g>
     <g id="text_3">
      <!-- 0.50 -->
      <g transform="translate(185.666963 315.5975) scale(0.16 -0.16)">
       <use xlink:href="#DejaVuSerif-30"/>
       <use xlink:href="#DejaVuSerif-2e" x="63.623047"/>
       <use xlink:href="#DejaVuSerif-35" x="95.410156"/>
       <use xlink:href="#DejaVuSerif-30" x="159.033203"/>
      </g>
     </g>
    </g>
    <g id="xtick_4">
     <g id="line2d_4">
      <g>
       <use xlink:href="#mdaf6f9ddd4" x="262.764446" y="296.44" style="stroke: #000000; stroke-width: 0.8"/>
      </g>
     </g>
     <g id="text_4">
      <!-- 0.75 -->
      <g transform="translate(244.951946 315.5975) scale(0.16 -0.16)">
       <defs>
        <path id="DejaVuSerif-37" d="M 3609 4347 
L 1784 0 
L 1319 0 
L 3059 4153 
L 903 4153 
L 903 3578 
L 538 3578 
L 538 4666 
L 3609 4666 
L 3609 4347 
z
" transform="scale(0.015625)"/>
       </defs>
       <use xlink:href="#DejaVuSerif-30"/>
       <use xlink:href="#DejaVuSerif-2e" x="63.623047"/>
       <use xlink:href="#DejaVuSerif-37" x="95.410156"/>
       <use xlink:href="#DejaVuSerif-35" x="159.033203"/>
      </g>
     </g>
    </g>
    <g id="xtick_5">
     <g id="line2d_5">
      <g>
       <use xlink:href="#mdaf6f9ddd4" x="322.049429" y="296.44" style="stroke: #000000; stroke-width: 0.8"/>
      </g>
     </g>
     <g id="text_5">
      <!-- 1.00 -->
      <g transform="translate(304.236929 315.5975) scale(0.16 -0.16)">
       <defs>
        <path id="DejaVuSerif-31" d="M 909 0 
L 909 331 
L 1722 331 
L 1722 4213 
L 781 3603 
L 781 4013 
L 1919 4750 
L 2350 4750 
L 2350 331 
L 3163 331 
L 3163 0 
L 909 0 
z
" transform="scale(0.015625)"/>
       </defs>
       <use xlink:href="#DejaVuSerif-31"/>
       <use xlink:href="#DejaVuSerif-2e" x="63.623047"/>
       <use xlink:href="#DejaVuSerif-30" x="95.410156"/>
       <use xlink:href="#DejaVuSerif-30" x="159.033203"/>
      </g>
     </g>
    </g>
    <g id="text_6">
     <!-- $x/L$ -->
     <g transform="translate(189.399463 334.925) scale(0.16 -0.16)">
      <defs>
       <path id="Cmmi10-78" d="M 500 184 
Q 613 97 819 97 
Q 1019 97 1172 289 
Q 1325 481 1381 709 
L 1672 1844 
Q 1741 2153 1741 2266 
Q 1741 2425 1652 2544 
Q 1563 2663 1403 2663 
Q 1200 2663 1022 2536 
Q 844 2409 722 2214 
Q 600 2019 550 1819 
Q 538 1778 500 1778 
L 422 1778 
Q 372 1778 372 1838 
L 372 1856 
Q 434 2094 584 2320 
Q 734 2547 951 2687 
Q 1169 2828 1416 2828 
Q 1650 2828 1839 2703 
Q 2028 2578 2106 2363 
Q 2216 2559 2386 2693 
Q 2556 2828 2759 2828 
Q 2897 2828 3040 2779 
Q 3184 2731 3275 2631 
Q 3366 2531 3366 2381 
Q 3366 2219 3261 2101 
Q 3156 1984 2994 1984 
Q 2891 1984 2822 2050 
Q 2753 2116 2753 2216 
Q 2753 2350 2845 2451 
Q 2938 2553 3066 2572 
Q 2950 2663 2747 2663 
Q 2541 2663 2389 2472 
Q 2238 2281 2175 2047 
L 1894 916 
Q 1825 659 1825 494 
Q 1825 331 1917 214 
Q 2009 97 2163 97 
Q 2463 97 2698 361 
Q 2934 625 3009 941 
Q 3022 978 3059 978 
L 3138 978 
Q 3163 978 3178 961 
Q 3194 944 3194 922 
Q 3194 916 3188 903 
Q 3097 522 2806 225 
Q 2516 -72 2150 -72 
Q 1916 -72 1727 54 
Q 1538 181 1459 397 
Q 1359 209 1182 68 
Q 1006 -72 806 -72 
Q 669 -72 523 -23 
Q 378 25 287 125 
Q 197 225 197 378 
Q 197 528 301 651 
Q 406 775 563 775 
Q 669 775 741 711 
Q 813 647 813 544 
Q 813 409 723 309 
Q 634 209 500 184 
z
" transform="scale(0.015625)"/>
       <path id="Cmmi10-3d" d="M 359 -1472 
Q 359 -1453 366 -1447 
L 2591 4722 
Q 2603 4759 2634 4779 
Q 2666 4800 2706 4800 
Q 2763 4800 2798 4765 
Q 2834 4731 2834 4672 
L 2834 4647 
L 609 -1522 
Q 572 -1600 488 -1600 
Q 434 -1600 396 -1562 
Q 359 -1525 359 -1472 
z
" transform="scale(0.015625)"/>
       <path id="Cmmi10-4c" d="M 300 0 
Q 238 0 238 84 
Q 241 100 250 139 
Q 259 178 276 201 
Q 294 225 319 225 
Q 709 225 863 269 
Q 947 297 984 441 
L 1863 3956 
Q 1875 4019 1875 4044 
Q 1875 4113 1797 4122 
Q 1678 4147 1338 4147 
Q 1275 4147 1275 4231 
Q 1297 4313 1309 4342 
Q 1322 4372 1381 4372 
L 3272 4372 
Q 3328 4372 3328 4288 
Q 3319 4222 3306 4184 
Q 3294 4147 3244 4147 
Q 2772 4147 2613 4116 
Q 2456 4088 2419 3928 
L 1544 416 
Q 1516 338 1516 275 
Q 1516 225 1734 225 
L 2328 225 
Q 2831 225 3143 425 
Q 3456 625 3606 876 
Q 3756 1128 3857 1398 
Q 3959 1669 4006 1678 
L 4063 1678 
Q 4128 1678 4128 1594 
L 3559 44 
Q 3550 0 3500 0 
L 300 0 
z
" transform="scale(0.015625)"/>
      </defs>
      <use xlink:href="#Cmmi10-78"/>
      <use xlink:href="#Cmmi10-3d" transform="translate(57.080078 0)"/>
      <use xlink:href="#Cmmi10-4c" transform="translate(107.080078 0)"/>
     </g>
    </g>
   </g>
   <g id="matplotlib.axis_2">
    <g id="ytick_1">
     <g id="line2d_6">
      <defs>
       <path id="m0f1940b065" d="M 0 0 
L -3.5 0 
" style="stroke: #000000; stroke-width: 0.8"/>
      </defs>
      <g>
       <use xlink:href="#m0f1940b065" x="73.0525" y="285.42" style="stroke: #000000; stroke-width: 0.8"/>
      </g>
     </g>
     <g id="text_7">
      <!-- −1.0 -->
      <g transform="translate(27.2 291.49875) scale(0.16 -0.16)">
       <defs>
        <path id="DejaVuSerif-2212" d="M 678 2259 
L 4684 2259 
L 4684 1753 
L 678 1753 
L 678 2259 
z
" transform="scale(0.015625)"/>
       </defs>
       <use xlink:href="#DejaVuSerif-2212"/>
       <use xlink:href="#DejaVuSerif-31" x="83.789062"/>
       <use xlink:href="#DejaVuSerif-2e" x="147.412109"/>
       <use xlink:href="#DejaVuSerif-30" x="179.199219"/>
      </g>
     </g>
    </g>
    <g id="ytick_2">
     <g id="line2d_7">
      <g>
       <use xlink:href="#m0f1940b065" x="73.0525" y="230.32" style="stroke: #000000; stroke-width: 0.8"/>
      </g>
     </g>
     <g id="text_8">
      <!-- −0.5 -->
      <g transform="translate(27.2 236.39875) scale(0.16 -0.16)">
       <use xlink:href="#DejaVuSerif-2212"/>
       <use xlink:href="#DejaVuSerif-30" x="83.789062"/>
       <use xlink:href="#DejaVuSerif-2e" x="147.412109"/>
       <use xlink:href="#DejaVuSerif-35" x="179.199219"/>
      </g>
     </g>
    </g>
    <g id="ytick_3">
     <g id="line2d_8">
      <g>
       <use xlink:href="#m0f1940b065" x="73.0525" y="175.22" style="stroke: #000000; stroke-width: 0.8"/>
      </g>
     </g>
     <g id="text_9">
      <!-- 0.0 -->
      <g transform="translate(40.6075 181.29875) scale(0.16 -0.16)">
       <use xlink:href="#DejaVuSerif-30"/>
       <use xlink:href="#DejaVuSerif-2e" x="63.623047"/>
       <use xlink:href="#DejaVuSerif-30" x="95.410156"/>
      </g>
     </g>
    </g>
    <g id="ytick_4">
     <g id="line2d_9">
      <g>
       <use xlink:href="#m0f1940b065" x="73.0525" y="120.12" style="stroke: #000000; stroke-width: 0.8"/>
      </g>
     </g>
     <g id="text_10">
      <!-- 0.5 -->
      <g transform="translate(40.6075 126.19875) scale(0.16 -0.16)">
       <use xlink:href="#DejaVuSerif-30"/>
       <use xlink:href="#DejaVuSerif-2e" x="63.623047"/>
       <use xlink:href="#DejaVuSerif-35" x="95.410156"/>
      </g>
     </g>
    </g>
    <g id="ytick_5">
     <g id="line2d_10">
      <g>
       <use xlink:href="#m0f1940b065" x="73.0525" y="65.02" style="stroke: #000000; stroke-width: 0.8"/>
      </g>
     </g>
     <g id="text_11">
      <!-- 1.0 -->
      <g transform="translate(40.6075 71.09875) scale(0.16 -0.16)">
       <use xlink:href="#DejaVuSerif-31"/>
       <use xlink:href="#DejaVuSerif-2e" x="63.623047"/>
       <use xlink:href="#DejaVuSerif-30" x="95.410156"/>
      </g>
     </g>
    </g>
    <g id="text_12">
     <!-- $\varphi/\varphi^*$ -->
     <g transform="translate(19.2 195.54) rotate(-90) scale(0.16 -0.16)">
      <defs>
       <path id="Cmmi10-27" d="M 1044 -1216 
Q 1044 -1191 1056 -1141 
L 1416 -13 
Q 938 106 628 428 
Q 319 750 319 1216 
Q 319 1450 406 1744 
Q 494 2038 631 2302 
Q 769 2566 928 2741 
Q 966 2759 972 2759 
L 1050 2759 
Q 1069 2759 1084 2740 
Q 1100 2722 1100 2700 
Q 1100 2675 1088 2663 
Q 981 2547 879 2380 
Q 778 2213 698 2028 
Q 619 1844 566 1641 
Q 513 1438 513 1288 
Q 513 909 814 676 
Q 1116 444 1528 366 
L 1709 941 
Q 1828 1313 1945 1605 
Q 2063 1897 2239 2176 
Q 2416 2456 2666 2642 
Q 2916 2828 3225 2828 
Q 3469 2828 3633 2706 
Q 3797 2584 3876 2381 
Q 3956 2178 3956 1947 
Q 3956 1566 3787 1202 
Q 3619 838 3325 548 
Q 3031 259 2662 93 
Q 2294 -72 1919 -72 
Q 1869 -69 1811 -66 
Q 1753 -63 1716 -63 
L 1503 -1178 
Q 1484 -1272 1407 -1333 
Q 1331 -1394 1234 -1394 
Q 1156 -1394 1100 -1345 
Q 1044 -1297 1044 -1216 
z
M 1784 331 
Q 1856 325 1991 325 
Q 2388 325 2798 520 
Q 3209 716 3479 1056 
Q 3750 1397 3750 1797 
Q 3750 1978 3676 2122 
Q 3603 2266 3470 2348 
Q 3338 2431 3163 2431 
Q 2666 2431 2331 1950 
Q 1997 1469 1894 916 
L 1784 331 
z
" transform="scale(0.015625)"/>
       <path id="Cmsy10-a4" d="M 603 813 
Q 531 813 473 873 
Q 416 934 416 1006 
Q 416 1116 506 1159 
L 1428 1600 
L 506 2034 
Q 416 2072 416 2188 
Q 416 2259 473 2320 
Q 531 2381 603 2381 
Q 650 2381 691 2350 
L 1509 1753 
L 1416 2797 
Q 1416 2875 1469 2925 
Q 1522 2975 1600 2975 
Q 1675 2975 1726 2928 
Q 1778 2881 1778 2809 
L 1778 2797 
L 1684 1753 
L 2503 2350 
Q 2544 2381 2591 2381 
Q 2669 2381 2723 2320 
Q 2778 2259 2778 2188 
Q 2778 2072 2688 2034 
L 1766 1600 
L 2688 1159 
Q 2778 1116 2778 1006 
Q 2778 934 2723 873 
Q 2669 813 2591 813 
Q 2544 813 2503 844 
L 1684 1441 
L 1778 403 
L 1778 384 
Q 1778 313 1723 266 
Q 1669 219 1600 219 
Q 1525 219 1470 270 
Q 1416 322 1416 397 
L 1509 1441 
L 691 844 
Q 650 813 603 813 
z
" transform="scale(0.015625)"/>
      </defs>
      <use xlink:href="#Cmmi10-27"/>
      <use xlink:href="#Cmmi10-3d" transform="translate(65.380859 0)"/>
      <use xlink:href="#Cmmi10-27" transform="translate(115.380859 0)"/>
      <use xlink:href="#Cmsy10-a4" transform="translate(199.356016 38.264063) scale(0.7)"/>
     </g>
    </g>
   </g>
   <g id="line2d_11">
    <path d="M 84.909497 175.22 
L 94.879344 152.835995 
L 100.339022 141.140042 
L 104.849191 132.004871 
L 108.647228 124.785105 
L 112.207887 118.478725 
L 115.53117 113.047016 
L 118.617075 108.433793 
L 121.465602 104.570844 
L 124.076753 101.382673 
L 126.687903 98.547781 
L 129.061676 96.288616 
L 131.435449 94.341582 
L 133.571845 92.862511 
L 135.708241 91.647257 
L 137.844637 90.699711 
L 139.743655 90.084664 
L 141.642674 89.685107 
L 143.541692 89.502052 
L 145.440711 89.535961 
L 147.339729 89.786748 
L 149.238748 90.25378 
L 151.137766 90.935874 
L 153.274162 91.958125 
L 155.410558 93.247088 
L 157.546953 94.798636 
L 159.683349 96.607797 
L 162.057122 98.91304 
L 164.430895 101.520035 
L 167.042046 104.723914 
L 169.890573 108.603161 
L 172.739101 112.861697 
L 175.825006 117.874955 
L 179.148289 123.701324 
L 182.708948 130.385574 
L 186.744362 138.439754 
L 191.491909 148.445848 
L 197.426341 161.529231 
L 217.84079 207.060154 
L 222.350959 216.322518 
L 226.386373 224.116716 
L 229.947033 230.532931 
L 233.270315 236.078637 
L 236.35622 240.806852 
L 239.204748 244.783078 
L 241.815898 248.080536 
L 244.427049 251.029388 
L 246.800822 253.395749 
L 249.174595 255.452969 
L 251.310991 257.033401 
L 253.447386 258.35176 
L 255.583782 259.403823 
L 257.720178 260.18622 
L 259.619197 260.653252 
L 261.518215 260.904039 
L 263.417234 260.937948 
L 265.316252 260.754893 
L 267.21527 260.355336 
L 269.114289 259.740289 
L 271.013307 258.911309 
L 273.149703 257.725623 
L 275.286099 256.275647 
L 277.422495 254.566025 
L 279.796268 252.368611 
L 282.170041 249.866117 
L 284.781191 246.772852 
L 287.392342 243.337239 
L 290.24087 239.218209 
L 293.326775 234.34552 
L 296.650057 228.657204 
L 300.210717 222.104348 
L 304.246131 214.176984 
L 308.7563 204.794847 
L 314.215978 192.886172 
L 322.049429 175.22 
L 322.049429 175.22 
" clip-path="url(#p7f875e1b70)" style="fill: none; stroke: #ff0000; stroke-width: 2; stroke-linecap: square"/>
   </g>
   <g id="line2d_12">
    <path d="M 84.909497 89.489229 
L 86.808515 89.597727 
L 88.707534 89.922948 
L 90.606552 90.464068 
L 92.505571 91.219718 
L 94.641966 92.323851 
L 96.778362 93.693526 
L 98.914758 95.324355 
L 101.288531 97.436297 
L 103.662304 99.85583 
L 106.273454 102.86113 
L 108.884605 106.212634 
L 111.733133 110.24478 
L 114.819038 115.029636 
L 118.14232 120.631335 
L 121.70298 127.101306 
L 125.501017 134.472831 
L 129.773808 143.254727 
L 134.996109 154.532172 
L 142.117428 170.504368 
L 154.698426 198.772846 
L 159.920726 209.917357 
L 164.193518 218.551497 
L 167.991555 225.763839 
L 171.552215 232.062255 
L 174.875497 237.485721 
L 177.961402 242.090644 
L 180.80993 245.945429 
L 183.42108 249.125734 
L 186.032231 251.952433 
L 188.406004 254.203898 
L 190.779777 256.143026 
L 192.916173 257.614828 
L 195.052568 258.822695 
L 197.188964 259.762757 
L 199.087983 260.371091 
L 200.987001 260.763894 
L 202.88602 260.940174 
L 204.785038 260.899483 
L 206.684056 260.641925 
L 208.583075 260.168152 
L 210.482093 259.479363 
L 212.618489 258.449655 
L 214.754885 257.153338 
L 216.891281 255.594563 
L 219.265054 253.560873 
L 221.638827 251.217387 
L 224.0126 248.573374 
L 226.623751 245.330364 
L 229.472278 241.410539 
L 232.320806 237.113853 
L 235.406711 232.062255 
L 238.729993 226.198361 
L 242.52803 219.015894 
L 246.563445 210.900719 
L 251.310991 200.838989 
L 257.245423 187.711805 
L 276.235608 145.265907 
L 280.983154 135.424839 
L 285.018569 127.548513 
L 288.579228 121.048177 
L 291.902511 115.414785 
L 294.988416 110.597824 
L 297.836943 106.533942 
L 300.685471 102.86113 
L 303.296622 99.85583 
L 305.670395 97.436297 
L 308.044168 95.324355 
L 310.417941 93.528356 
L 312.554337 92.187985 
L 314.690732 91.11359 
L 316.827128 90.308613 
L 318.726147 89.821361 
L 320.625165 89.550265 
L 322.049429 89.489229 
L 322.049429 89.489229 
" clip-path="url(#p7f875e1b70)" style="fill: none; stroke: #000000; stroke-width: 2; stroke-linecap: square"/>
   </g>
   <g id="patch_3">
    <path d="M 73.0525 296.44 
L 73.0525 54 
" style="fill: none; stroke: #000000; stroke-width: 0.8; stroke-linejoin: miter; stroke-linecap: square"/>
   </g>
   <g id="patch_4">
    <path d="M 333.906426 296.44 
L 333.906426 54 
" style="fill: none; stroke: #000000; stroke-width: 0.8; stroke-linejoin: miter; stroke-linecap: square"/>
   </g>
   <g id="patch_5">
    <path d="M 73.0525 296.44 
L 333.906426 296.44 
" style="fill: none; stroke: #000000; stroke-width: 0.8; stroke-linejoin: miter; stroke-linecap: square"/>
   </g>
   <g id="patch_6">
    <path d="M 73.0525 54 
L 333.906426 54 
" style="fill: none; stroke: #000000; stroke-width: 0.8; stroke-linejoin: miter; stroke-linecap: square"/>
   </g>
   <g id="legend_1">
    <g id="patch_7">
     <path d="M 84.2525 288.44 
L 152.5725 288.44 
Q 155.7725 288.44 155.7725 285.24 
L 155.7725 239.485 
Q 155.7725 236.285 152.5725 236.285 
L 84.2525 236.285 
Q 81.0525 236.285 81.0525 239.485 
L 81.0525 285.24 
Q 81.0525 288.44 84.2525 288.44 
z
" style="fill: #ffffff; opacity: 0.8; stroke: #cccccc; stroke-linejoin: miter"/>
    </g>
    <g id="line2d_13">
     <path d="M 87.4525 249.2425 
L 103.4525 249.2425 
L 119.4525 249.2425 
" style="fill: none; stroke: #ff0000; stroke-width: 2; stroke-linecap: square"/>
    </g>
    <g id="text_13">
     <!-- $\varphi_1$ -->
     <g transform="translate(132.2525 254.8425) scale(0.16 -0.16)">
      <defs>
       <path id="Cmr10-31" d="M 594 0 
L 594 225 
Q 1394 225 1394 428 
L 1394 3788 
Q 1063 3628 556 3628 
L 556 3853 
Q 1341 3853 1741 4263 
L 1831 4263 
Q 1853 4263 1873 4245 
Q 1894 4228 1894 4206 
L 1894 428 
Q 1894 225 2694 225 
L 2694 0 
L 594 0 
z
" transform="scale(0.015625)"/>
      </defs>
      <use xlink:href="#Cmmi10-27" transform="translate(0 0.8125)"/>
      <use xlink:href="#Cmr10-31" transform="translate(65.380859 -16.19375) scale(0.7)"/>
     </g>
    </g>
    <g id="line2d_14">
     <path d="M 87.4525 272.92 
L 103.4525 272.92 
L 119.4525 272.92 
" style="fill: none; stroke: #000000; stroke-width: 2; stroke-linecap: square"/>
    </g>
    <g id="text_14">
     <!-- $\varphi_2$ -->
     <g transform="translate(132.2525 278.52) scale(0.16 -0.16)">
      <defs>
       <path id="Cmr10-32" d="M 319 0 
L 319 172 
Q 319 188 331 206 
L 1325 1306 
Q 1550 1550 1690 1715 
Q 1831 1881 1968 2097 
Q 2106 2313 2186 2536 
Q 2266 2759 2266 3009 
Q 2266 3272 2169 3511 
Q 2072 3750 1880 3894 
Q 1688 4038 1416 4038 
Q 1138 4038 916 3870 
Q 694 3703 603 3438 
Q 628 3444 672 3444 
Q 816 3444 917 3347 
Q 1019 3250 1019 3097 
Q 1019 2950 917 2848 
Q 816 2747 672 2747 
Q 522 2747 420 2851 
Q 319 2956 319 3097 
Q 319 3338 409 3548 
Q 500 3759 670 3923 
Q 841 4088 1055 4175 
Q 1269 4263 1509 4263 
Q 1875 4263 2190 4108 
Q 2506 3953 2690 3670 
Q 2875 3388 2875 3009 
Q 2875 2731 2753 2481 
Q 2631 2231 2440 2026 
Q 2250 1822 1953 1562 
Q 1656 1303 1563 1216 
L 838 519 
L 1453 519 
Q 1906 519 2211 526 
Q 2516 534 2534 550 
Q 2609 631 2688 1141 
L 2875 1141 
L 2694 0 
L 319 0 
z
" transform="scale(0.015625)"/>
      </defs>
      <use xlink:href="#Cmmi10-27" transform="translate(0 0.8125)"/>
      <use xlink:href="#Cmr10-32" transform="translate(65.380859 -16.19375) scale(0.7)"/>
     </g>
    </g>
   </g>
  </g>
  <g id="axes_2">
   <g id="patch_8">
    <path d="M 426.9775 296.44 
L 687.831426 296.44 
L 687.831426 54 
L 426.9775 54 
z
" style="fill: #ffffff"/>
   </g>
   <g id="matplotlib.axis_3">
    <g id="xtick_6">
     <g id="line2d_15">
      <g>
       <use xlink:href="#mdaf6f9ddd4" x="438.83391" y="296.44" style="stroke: #000000; stroke-width: 0.8"/>
      </g>
     </g>
     <g id="text_15">
      <!-- −1.0 -->
      <g transform="translate(419.40766 315.5975) scale(0.16 -0.16)">
       <use xlink:href="#DejaVuSerif-2212"/>
       <use xlink:href="#DejaVuSerif-31" x="83.789062"/>
       <use xlink:href="#DejaVuSerif-2e" x="147.412109"/>
       <use xlink:href="#DejaVuSerif-30" x="179.199219"/>
      </g>
     </g>
    </g>
    <g id="xtick_7">
     <g id="line2d_16">
      <g>
       <use xlink:href="#mdaf6f9ddd4" x="498.11904" y="296.44" style="stroke: #000000; stroke-width: 0.8"/>
      </g>
     </g>
     <g id="text_16">
      <!-- −0.5 -->
      <g transform="translate(478.69279 315.5975) scale(0.16 -0.16)">
       <use xlink:href="#DejaVuSerif-2212"/>
       <use xlink:href="#DejaVuSerif-30" x="83.789062"/>
       <use xlink:href="#DejaVuSerif-2e" x="147.412109"/>
       <use xlink:href="#DejaVuSerif-35" x="179.199219"/>
      </g>
     </g>
    </g>
    <g id="xtick_8">
     <g id="line2d_17">
      <g>
       <use xlink:href="#mdaf6f9ddd4" x="557.40417" y="296.44" style="stroke: #000000; stroke-width: 0.8"/>
      </g>
     </g>
     <g id="text_17">
      <!-- 0.0 -->
      <g transform="translate(544.68167 315.5975) scale(0.16 -0.16)">
       <use xlink:href="#DejaVuSerif-30"/>
       <use xlink:href="#DejaVuSerif-2e" x="63.623047"/>
       <use xlink:href="#DejaVuSerif-30" x="95.410156"/>
      </g>
     </g>
    </g>
    <g id="xtick_9">
     <g id="line2d_18">
      <g>
       <use xlink:href="#mdaf6f9ddd4" x="616.689299" y="296.44" style="stroke: #000000; stroke-width: 0.8"/>
      </g>
     </g>
     <g id="text_18">
      <!-- 0.5 -->
      <g transform="translate(603.966799 315.5975) scale(0.16 -0.16)">
       <use xlink:href="#DejaVuSerif-30"/>
       <use xlink:href="#DejaVuSerif-2e" x="63.623047"/>
       <use xlink:href="#DejaVuSerif-35" x="95.410156"/>
      </g>
     </g>
    </g>
    <g id="xtick_10">
     <g id="line2d_19">
      <g>
       <use xlink:href="#mdaf6f9ddd4" x="675.974429" y="296.44" style="stroke: #000000; stroke-width: 0.8"/>
      </g>
     </g>
     <g id="text_19">
      <!-- 1.0 -->
      <g transform="translate(663.251929 315.5975) scale(0.16 -0.16)">
       <use xlink:href="#DejaVuSerif-31"/>
       <use xlink:href="#DejaVuSerif-2e" x="63.623047"/>
       <use xlink:href="#DejaVuSerif-30" x="95.410156"/>
      </g>
     </g>
    </g>
    <g id="text_20">
     <!-- $\varphi_1/\varphi^*$ -->
     <g transform="translate(533.804463 334.925) scale(0.16 -0.16)">
      <use xlink:href="#Cmmi10-27"/>
      <use xlink:href="#Cmr10-31" transform="translate(65.380859 -17.00625) scale(0.7)"/>
      <use xlink:href="#Cmmi10-3d" transform="translate(106.758203 0)"/>
      <use xlink:href="#Cmmi10-27" transform="translate(156.758203 0)"/>
      <use xlink:href="#Cmsy10-a4" transform="translate(240.733359 38.264063) scale(0.7)"/>
     </g>
    </g>
   </g>
   <g id="matplotlib.axis_4">
    <g id="ytick_6">
     <g id="line2d_20">
      <g>
       <use xlink:href="#m0f1940b065" x="426.9775" y="285.420136" style="stroke: #000000; stroke-width: 0.8"/>
      </g>
     </g>
     <g id="text_21">
      <!-- −1.0 -->
      <g transform="translate(381.125 291.498886) scale(0.16 -0.16)">
       <use xlink:href="#DejaVuSerif-2212"/>
       <use xlink:href="#DejaVuSerif-31" x="83.789062"/>
       <use xlink:href="#DejaVuSerif-2e" x="147.412109"/>
       <use xlink:href="#DejaVuSerif-30" x="179.199219"/>
      </g>
     </g>
    </g>
    <g id="ytick_7">
     <g id="line2d_21">
      <g>
       <use xlink:href="#m0f1940b065" x="426.9775" y="230.320068" style="stroke: #000000; stroke-width: 0.8"/>
      </g>
     </g>
     <g id="text_22">
      <!-- −0.5 -->
      <g transform="translate(381.125 236.398818) scale(0.16 -0.16)">
       <use xlink:href="#DejaVuSerif-2212"/>
       <use xlink:href="#DejaVuSerif-30" x="83.789062"/>
       <use xlink:href="#DejaVuSerif-2e" x="147.412109"/>
       <use xlink:href="#DejaVuSerif-35" x="179.199219"/>
      </g>
     </g>
    </g>
    <g id="ytick_8">
     <g id="line2d_22">
      <g>
       <use xlink:href="#m0f1940b065" x="426.9775" y="175.22" style="stroke: #000000; stroke-width: 0.8"/>
      </g>
     </g>
     <g id="text_23">
      <!-- 0.0 -->
      <g transform="translate(394.5325 181.29875) scale(0.16 -0.16)">
       <use xlink:href="#DejaVuSerif-30"/>
       <use xlink:href="#DejaVuSerif-2e" x="63.623047"/>
       <use xlink:href="#DejaVuSerif-30" x="95.410156"/>
      </g>
     </g>
    </g>
    <g id="ytick_9">
     <g id="line2d_23">
      <g>
       <use xlink:href="#m0f1940b065" x="426.9775" y="120.119932" style="stroke: #000000; stroke-width: 0.8"/>
      </g>
     </g>
     <g id="text_24">
      <!-- 0.5 -->
      <g transform="translate(394.5325 126.198682) scale(0.16 -0.16)">
       <use xlink:href="#DejaVuSerif-30"/>
       <use xlink:href="#DejaVuSerif-2e" x="63.623047"/>
       <use xlink:href="#DejaVuSerif-35" x="95.410156"/>
      </g>
     </g>
    </g>
    <g id="ytick_10">
     <g id="line2d_24">
      <g>
       <use xlink:href="#m0f1940b065" x="426.9775" y="65.019864" style="stroke: #000000; stroke-width: 0.8"/>
      </g>
     </g>
     <g id="text_25">
      <!-- 1.0 -->
      <g transform="translate(394.5325 71.098614) scale(0.16 -0.16)">
       <use xlink:href="#DejaVuSerif-31"/>
       <use xlink:href="#DejaVuSerif-2e" x="63.623047"/>
       <use xlink:href="#DejaVuSerif-30" x="95.410156"/>
      </g>
     </g>
    </g>
    <g id="text_26">
     <!-- $\varphi_2/\varphi^*$ -->
     <g transform="translate(373.125 198.82) rotate(-90) scale(0.16 -0.16)">
      <use xlink:href="#Cmmi10-27"/>
      <use xlink:href="#Cmr10-32" transform="translate(65.380859 -17.00625) scale(0.7)"/>
      <use xlink:href="#Cmmi10-3d" transform="translate(106.758203 0)"/>
      <use xlink:href="#Cmmi10-27" transform="translate(156.758203 0)"/>
      <use xlink:href="#Cmsy10-a4" transform="translate(240.733359 38.264063) scale(0.7)"/>
     </g>
    </g>
   </g>
   <g id="line2d_25">
    <path d="M 675.974429 175.22 
L 675.859534 170.36986 
L 675.515072 165.52912 
L 674.941711 160.707161 
L 674.140562 155.913328 
L 673.113177 151.156911 
L 671.861547 146.447129 
L 670.388099 141.793109 
L 668.695687 137.20387 
L 666.787592 132.688306 
L 664.667511 128.255169 
L 662.339553 123.91305 
L 659.808231 119.670364 
L 657.078449 115.535334 
L 654.155497 111.515973 
L 651.045041 107.62007 
L 647.753109 103.855176 
L 644.28608 100.228588 
L 640.650674 96.747333 
L 636.853936 93.418159 
L 632.903223 90.247517 
L 628.806193 87.241552 
L 624.570786 84.406089 
L 620.20521 81.746625 
L 615.717925 79.268312 
L 611.117627 76.975953 
L 606.413233 74.873993 
L 601.613859 72.966503 
L 596.728806 71.257181 
L 591.767542 69.749339 
L 586.739682 68.4459 
L 581.654969 67.349389 
L 576.523259 66.461932 
L 571.354495 65.785249 
L 566.158696 65.320651 
L 560.94593 65.069038 
L 555.7263 65.030898 
L 550.509922 65.206305 
L 545.306905 65.594919 
L 540.127333 66.195987 
L 534.981243 67.008344 
L 529.878609 68.030415 
L 524.82932 69.260221 
L 519.843161 70.695376 
L 514.929795 72.333101 
L 510.098744 74.170222 
L 505.359372 76.203177 
L 500.720863 78.428027 
L 496.192206 80.84046 
L 491.782179 83.435802 
L 487.499327 86.209021 
L 483.351951 89.154744 
L 479.348088 92.267262 
L 475.495499 95.540543 
L 471.801648 98.968242 
L 468.273696 102.543718 
L 464.918479 106.260041 
L 461.7425 110.110009 
L 458.751913 114.08616 
L 455.952515 118.180789 
L 453.349731 122.385959 
L 450.948604 126.693523 
L 448.753789 131.095131 
L 446.769539 135.582253 
L 444.999699 140.146193 
L 443.447699 144.778107 
L 442.116548 149.469017 
L 441.008824 154.209832 
L 440.126675 158.991365 
L 439.47181 163.80435 
L 439.045499 168.639458 
L 438.848567 173.487319 
L 438.881397 178.338538 
L 439.143924 183.183713 
L 439.63564 188.013455 
L 440.355592 192.818403 
L 441.302384 197.589245 
L 442.474183 202.316735 
L 443.868716 206.991712 
L 445.483281 211.605115 
L 447.314749 216.148004 
L 449.359571 220.611574 
L 451.613784 224.987175 
L 454.073019 229.266326 
L 456.732511 233.440736 
L 459.587104 237.502314 
L 462.631267 241.443189 
L 465.859101 245.255722 
L 469.264349 248.932527 
L 472.840413 252.466476 
L 476.580361 255.850721 
L 480.476947 259.078703 
L 484.522618 262.144167 
L 488.709533 265.041171 
L 493.029579 267.764102 
L 497.474383 270.307682 
L 502.035331 272.666981 
L 506.703585 274.837428 
L 511.470096 276.814816 
L 516.325628 278.595313 
L 521.26077 280.175467 
L 526.265958 281.552218 
L 531.331492 282.722897 
L 536.447555 283.685234 
L 541.604232 284.437366 
L 546.79153 284.977833 
L 551.999394 285.30559 
L 557.217734 285.42 
L 562.436434 285.320842 
L 567.645382 285.008308 
L 572.834483 284.483005 
L 577.993679 283.745949 
L 583.112973 282.798569 
L 588.182443 281.642701 
L 593.192265 280.280586 
L 598.132729 278.714863 
L 602.994261 276.948567 
L 607.76744 274.98512 
L 612.443014 272.828328 
L 617.011923 270.482371 
L 621.465311 267.951794 
L 625.794549 265.241504 
L 629.991246 262.356751 
L 634.047269 259.303126 
L 637.954757 256.086549 
L 641.706138 252.713251 
L 645.294141 249.189772 
L 648.711814 245.522938 
L 651.952531 241.719858 
L 655.010014 237.7879 
L 657.878336 233.734685 
L 660.551939 229.568069 
L 663.02564 225.296126 
L 665.294648 220.927135 
L 667.354562 216.469564 
L 669.201393 211.932051 
L 670.83156 207.323389 
L 672.241904 202.652512 
L 673.429693 197.928469 
L 674.392623 193.160418 
L 675.128829 188.357598 
L 675.636885 183.529318 
L 675.915805 178.684934 
L 675.974429 175.22 
L 675.974429 175.22 
" clip-path="url(#p4dc698c8ca)" style="fill: none; stroke-dasharray: 7.4,3.2; stroke-dashoffset: 0; stroke: #000000; stroke-width: 2"/>
   </g>
   <g id="line2d_26">
    <path d="M 649.646636 175.22 
L 649.529897 170.908202 
L 649.179973 166.607318 
L 648.597752 162.328235 
L 647.784707 158.081782 
L 646.742895 153.878708 
L 645.474955 149.729652 
L 643.984094 145.645116 
L 642.274086 141.635439 
L 640.349261 137.710768 
L 638.21449 133.88104 
L 635.875175 130.155946 
L 633.33724 126.544915 
L 630.607106 123.057089 
L 627.691686 119.701294 
L 624.598357 116.486025 
L 621.334951 113.419421 
L 617.909726 110.509243 
L 614.331352 107.762857 
L 610.608888 105.187215 
L 606.751755 102.788836 
L 602.769716 100.573791 
L 598.67285 98.547686 
L 594.471527 96.71565 
L 590.176382 95.08232 
L 585.798285 93.65183 
L 581.348318 92.427801 
L 576.837745 91.413332 
L 572.277983 90.610989 
L 567.680573 90.022803 
L 563.057153 89.650265 
L 558.419423 89.494315 
L 553.779124 89.55535 
L 549.148001 89.833215 
L 544.537775 90.327206 
L 539.960115 91.036073 
L 535.42661 91.958022 
L 530.948732 93.090719 
L 526.537817 94.431297 
L 522.20503 95.976363 
L 517.961336 97.722006 
L 513.817478 99.663808 
L 509.783944 101.796853 
L 505.870944 104.115744 
L 502.088382 106.614609 
L 498.445833 109.287125 
L 494.952515 112.126526 
L 491.617272 115.125627 
L 488.448545 118.276834 
L 485.454355 121.572174 
L 482.64228 125.003303 
L 480.019438 128.561539 
L 477.592469 132.237874 
L 475.367514 136.023002 
L 473.350206 139.907345 
L 471.545651 143.881068 
L 469.958416 147.934115 
L 468.59252 152.056227 
L 467.451418 156.236969 
L 466.538 160.46576 
L 465.854577 164.731897 
L 465.40288 169.02458 
L 465.184052 173.332945 
L 465.198646 177.646086 
L 465.446625 181.953086 
L 465.927363 186.243044 
L 466.639641 190.505101 
L 467.581658 194.72847 
L 468.751029 198.902459 
L 470.144793 203.016505 
L 471.759424 207.060194 
L 473.590834 211.02329 
L 475.634388 214.895763 
L 477.884913 218.667811 
L 480.336713 222.329887 
L 482.983582 225.87272 
L 485.81882 229.287344 
L 488.835251 232.565116 
L 492.02524 235.697739 
L 495.380713 238.677284 
L 498.893176 241.496209 
L 502.553739 244.147379 
L 506.353136 246.624085 
L 510.281751 248.920056 
L 514.329639 251.029482 
L 518.486556 252.947022 
L 522.741979 254.667825 
L 527.085136 256.187533 
L 531.505036 257.502301 
L 535.99049 258.6088 
L 540.530145 259.50423 
L 545.112511 260.186325 
L 549.725988 260.653357 
L 554.358901 260.904145 
L 558.999521 260.938054 
L 563.636103 260.754999 
L 568.256912 260.355441 
L 572.85025 259.740394 
L 577.404492 258.911413 
L 581.908111 257.870597 
L 586.349706 256.62058 
L 590.718036 255.164527 
L 595.002044 253.506122 
L 599.190886 251.649564 
L 603.27396 249.599551 
L 607.240931 247.361273 
L 611.081757 244.940395 
L 614.786718 242.343044 
L 618.346436 239.575795 
L 621.751899 236.645653 
L 624.994489 233.560033 
L 628.065999 230.326746 
L 630.958652 226.953976 
L 633.665129 223.450259 
L 636.178578 219.824465 
L 638.492638 216.08577 
L 640.601451 212.243638 
L 642.499679 208.307794 
L 644.182519 204.2882 
L 645.645709 200.19503 
L 646.885548 196.038645 
L 647.898896 191.829565 
L 648.683189 187.578443 
L 649.236441 183.29604 
L 649.557253 178.993196 
L 649.646636 175.22 
L 649.646636 175.22 
" clip-path="url(#p4dc698c8ca)" style="fill: none; stroke: #008000; stroke-width: 2; stroke-linecap: square"/>
   </g>
   <g id="patch_9">
    <path d="M 426.9775 296.44 
L 426.9775 54 
" style="fill: none; stroke: #000000; stroke-width: 0.8; stroke-linejoin: miter; stroke-linecap: square"/>
   </g>
   <g id="patch_10">
    <path d="M 687.831426 296.44 
L 687.831426 54 
" style="fill: none; stroke: #000000; stroke-width: 0.8; stroke-linejoin: miter; stroke-linecap: square"/>
   </g>
   <g id="patch_11">
    <path d="M 426.9775 296.44 
L 687.831426 296.44 
" style="fill: none; stroke: #000000; stroke-width: 0.8; stroke-linejoin: miter; stroke-linecap: square"/>
   </g>
   <g id="patch_12">
    <path d="M 426.9775 54 
L 687.831426 54 
" style="fill: none; stroke: #000000; stroke-width: 0.8; stroke-linejoin: miter; stroke-linecap: square"/>
   </g>
   <g id="legend_2">
    <g id="patch_13">
     <path d="M 502.044463 201.7775 
L 612.764463 201.7775 
Q 615.964463 201.7775 615.964463 198.5775 
L 615.964463 151.8625 
Q 615.964463 148.6625 612.764463 148.6625 
L 502.044463 148.6625 
Q 498.844463 148.6625 498.844463 151.8625 
L 498.844463 198.5775 
Q 498.844463 201.7775 502.044463 201.7775 
z
" style="fill: #ffffff; opacity: 0.8; stroke: #cccccc; stroke-linejoin: miter"/>
    </g>
    <g id="line2d_27">
     <path d="M 505.244463 161.62 
L 521.244463 161.62 
L 537.244463 161.62 
" style="fill: none; stroke-dasharray: 7.4,3.2; stroke-dashoffset: 0; stroke: #000000; stroke-width: 2"/>
    </g>
    <g id="text_27">
     <!-- $|\varphi| = \varphi^*$ -->
     <g transform="translate(550.044463 167.22) scale(0.16 -0.16)">
      <defs>
       <path id="Cmsy10-6a" d="M 763 -1484 
L 763 4684 
Q 763 4734 800 4767 
Q 838 4800 891 4800 
Q 938 4800 978 4767 
Q 1019 4734 1019 4684 
L 1019 -1484 
Q 1019 -1534 978 -1567 
Q 938 -1600 891 -1600 
Q 838 -1600 800 -1567 
Q 763 -1534 763 -1484 
z
" transform="scale(0.015625)"/>
       <path id="Cmr10-3d" d="M 481 850 
Q 428 850 393 890 
Q 359 931 359 978 
Q 359 1031 393 1068 
Q 428 1106 481 1106 
L 4500 1106 
Q 4547 1106 4581 1068 
Q 4616 1031 4616 978 
Q 4616 931 4581 890 
Q 4547 850 4500 850 
L 481 850 
z
M 481 2094 
Q 428 2094 393 2131 
Q 359 2169 359 2222 
Q 359 2269 393 2309 
Q 428 2350 481 2350 
L 4500 2350 
Q 4547 2350 4581 2309 
Q 4616 2269 4616 2222 
Q 4616 2169 4581 2131 
Q 4547 2094 4500 2094 
L 481 2094 
z
" transform="scale(0.015625)"/>
      </defs>
      <use xlink:href="#Cmsy10-6a"/>
      <use xlink:href="#Cmmi10-27" transform="translate(27.685547 0)"/>
      <use xlink:href="#Cmsy10-6a" transform="translate(93.066406 0)"/>
      <use xlink:href="#Cmr10-3d" transform="translate(138.310547 0)"/>
      <use xlink:href="#Cmmi10-27" transform="translate(233.554688 0)"/>
      <use xlink:href="#Cmsy10-a4" transform="translate(317.529844 38.264063) scale(0.7)"/>
     </g>
    </g>
    <g id="line2d_28">
     <path d="M 505.244463 185.7775 
L 521.244463 185.7775 
L 537.244463 185.7775 
" style="fill: none; stroke: #008000; stroke-width: 2; stroke-linecap: square"/>
    </g>
    <g id="text_28">
     <!-- $\varphi_i(x)$ -->
     <g transform="translate(550.044463 191.3775) scale(0.16 -0.16)">
      <defs>
       <path id="Cmmi10-69" d="M 500 459 
Q 500 578 550 709 
L 1069 2088 
Q 1153 2322 1153 2472 
Q 1153 2663 1013 2663 
Q 759 2663 595 2402 
Q 431 2141 353 1819 
Q 341 1778 300 1778 
L 225 1778 
Q 172 1778 172 1838 
L 172 1856 
Q 275 2238 487 2533 
Q 700 2828 1025 2828 
Q 1253 2828 1411 2678 
Q 1569 2528 1569 2297 
Q 1569 2178 1516 2047 
L 997 672 
Q 909 459 909 288 
Q 909 97 1056 97 
Q 1306 97 1473 364 
Q 1641 631 1709 941 
Q 1722 978 1759 978 
L 1838 978 
Q 1863 978 1878 961 
Q 1894 944 1894 922 
Q 1894 916 1888 903 
Q 1800 541 1583 234 
Q 1366 -72 1044 -72 
Q 819 -72 659 83 
Q 500 238 500 459 
z
M 1222 3878 
Q 1222 4013 1334 4122 
Q 1447 4231 1581 4231 
Q 1691 4231 1761 4164 
Q 1831 4097 1831 3994 
Q 1831 3850 1717 3742 
Q 1603 3634 1466 3634 
Q 1363 3634 1292 3704 
Q 1222 3775 1222 3878 
z
" transform="scale(0.015625)"/>
       <path id="Cmr10-28" d="M 1984 -1588 
Q 1628 -1306 1370 -942 
Q 1113 -578 948 -165 
Q 784 247 703 697 
Q 622 1147 622 1600 
Q 622 2059 703 2509 
Q 784 2959 951 3375 
Q 1119 3791 1378 4153 
Q 1638 4516 1984 4788 
Q 1984 4800 2016 4800 
L 2075 4800 
Q 2094 4800 2109 4783 
Q 2125 4766 2125 4744 
Q 2125 4716 2113 4703 
Q 1800 4397 1592 4047 
Q 1384 3697 1257 3301 
Q 1131 2906 1075 2482 
Q 1019 2059 1019 1600 
Q 1019 -434 2106 -1491 
Q 2125 -1509 2125 -1544 
Q 2125 -1559 2108 -1579 
Q 2091 -1600 2075 -1600 
L 2016 -1600 
Q 1984 -1600 1984 -1588 
z
" transform="scale(0.015625)"/>
       <path id="Cmr10-29" d="M 416 -1600 
Q 359 -1600 359 -1544 
Q 359 -1516 372 -1503 
Q 1466 -434 1466 1600 
Q 1466 3634 384 4691 
Q 359 4706 359 4744 
Q 359 4766 376 4783 
Q 394 4800 416 4800 
L 475 4800 
Q 494 4800 506 4788 
Q 966 4425 1272 3906 
Q 1578 3388 1720 2800 
Q 1863 2213 1863 1600 
Q 1863 1147 1786 708 
Q 1709 269 1542 -157 
Q 1375 -584 1119 -945 
Q 863 -1306 506 -1588 
Q 494 -1600 475 -1600 
L 416 -1600 
z
" transform="scale(0.015625)"/>
      </defs>
      <use xlink:href="#Cmmi10-27"/>
      <use xlink:href="#Cmmi10-69" transform="translate(65.380859 -17.00625) scale(0.7)"/>
      <use xlink:href="#Cmr10-28" transform="translate(95.854883 0)"/>
      <use xlink:href="#Cmmi10-78" transform="translate(134.673242 0)"/>
      <use xlink:href="#Cmr10-29" transform="translate(191.75332 0)"/>
     </g>
    </g>
   </g>
  </g>
  <g id="text_29">
   <!-- $\bar\varphi = 0$ -->
   <g transform="translate(324.3785 21.558) scale(0.192 -0.192)">
    <defs>
     <path id="Cmr10-b9" d="M 441 3553 
L 441 3775 
L 2753 3775 
L 2753 3553 
L 441 3553 
z
" transform="scale(0.015625)"/>
     <path id="Cmr10-30" d="M 1600 -141 
Q 816 -141 533 504 
Q 250 1150 250 2041 
Q 250 2597 351 3087 
Q 453 3578 754 3920 
Q 1056 4263 1600 4263 
Q 2022 4263 2290 4056 
Q 2559 3850 2700 3523 
Q 2841 3197 2892 2823 
Q 2944 2450 2944 2041 
Q 2944 1491 2842 1011 
Q 2741 531 2444 195 
Q 2147 -141 1600 -141 
z
M 1600 25 
Q 1956 25 2131 390 
Q 2306 756 2347 1200 
Q 2388 1644 2388 2144 
Q 2388 2625 2347 3031 
Q 2306 3438 2132 3767 
Q 1959 4097 1600 4097 
Q 1238 4097 1063 3765 
Q 888 3434 847 3029 
Q 806 2625 806 2144 
Q 806 1788 823 1472 
Q 841 1156 916 820 
Q 991 484 1158 254 
Q 1325 25 1600 25 
z
" transform="scale(0.015625)"/>
    </defs>
    <use xlink:href="#Cmr10-b9" transform="translate(10.316406 1.5625)"/>
    <use xlink:href="#Cmmi10-27" transform="translate(0 0.390625)"/>
    <use xlink:href="#Cmr10-3d" transform="translate(82.939453 0.390625)"/>
    <use xlink:href="#Cmr10-30" transform="translate(178.183594 0.390625)"/>
   </g>
  </g>
 </g>
 <defs>
  <clipPath id="p7f875e1b70">
   <rect x="73.0525" y="54" width="260.853926" height="242.44"/>
  </clipPath>
  <clipPath id="p4dc698c8ca">
   <rect x="426.9775" y="54" width="260.853926" height="242.44"/>
  </clipPath>
 </defs>
</svg>
