<?xml version="1.0" encoding="utf-8" standalone="no"?>
<!DOCTYPE svg PUBLIC "-//W3C//DTD SVG 1.1//EN"
  "http://www.w3.org/Graphics/SVG/1.1/DTD/svg11.dtd">
<svg xmlns:xlink="http://www.w3.org/1999/xlink" width="695.896929pt" height="307.245pt" viewBox="0 0 695.896929 307.245" xmlns="http://www.w3.org/2000/svg" version="1.1">
 <metadata>
  <rdf:RDF xmlns:dc="http://purl.org/dc/elements/1.1/" xmlns:cc="http://creativecommons.org/ns#" xmlns:rdf="http://www.w3.org/1999/02/22-rdf-syntax-ns#">
   <cc:Work>
    <dc:type rdf:resource="http://purl.org/dc/dcmitype/StillImage"/>
    <dc:date>2023-09-07T16:10:44.398836</dc:date>
    <dc:format>image/svg+xml</dc:format>
    <dc:creator>
     <cc:Agent>
      <dc:title>Matplotlib v3.7.1, https://matplotlib.org/</dc:title>
     </cc:Agent>
    </dc:creator>
   </cc:Work>
  </rdf:RDF>
 </metadata>
 <defs>
  <style type="text/css">*{stroke-linejoin: round; stroke-linecap: butt}</style>
 </defs>
 <g id="figure_1">
  <g id="patch_1">
   <path d="M 0 307.245 
L 695.896929 307.245 
L 695.896929 0 
L 0 0 
z
" style="fill: #ffffff"/>
  </g>
  <g id="axes_1">
   <g id="patch_2">
    <path d="M 73.0525 257.56 
L 333.906426 257.56 
L 333.906426 7.2 
L 73.0525 7.2 
z
" style="fill: #ffffff"/>
   </g>
   <g id="matplotlib.axis_1">
    <g id="xtick_1">
     <g id="line2d_1">
      <defs>
       <path id="m36a5cd3bbe" d="M 0 0 
L 0 3.5 
" style="stroke: #000000; stroke-width: 0.8"/>
      </defs>
      <g>
       <use xlink:href="#m36a5cd3bbe" x="84.909497" y="257.56" style="stroke: #000000; stroke-width: 0.8"/>
      </g>
     </g>
     <g id="text_1">
      <!-- 0.00 -->
      <g transform="translate(67.096997 276.7175) scale(0.16 -0.16)">
       <defs>
        <path id="DejaVuSerif-30" d="M 2034 219 
Q 2513 219 2750 744 
Q 2988 1269 2988 2328 
Q 2988 3391 2750 3916 
Q 2513 4441 2034 4441 
Q 1556 4441 1318 3916 
Q 1081 3391 1081 2328 
Q 1081 1269 1318 744 
Q 1556 219 2034 219 
z
M 2034 -91 
Q 1275 -91 848 546 
Q 422 1184 422 2328 
Q 422 3475 848 4112 
Q 1275 4750 2034 4750 
Q 2797 4750 3222 4112 
Q 3647 3475 3647 2328 
Q 3647 1184 3222 546 
Q 2797 -91 2034 -91 
z
" transform="scale(0.015625)"/>
        <path id="DejaVuSerif-2e" d="M 603 325 
Q 603 500 722 622 
Q 841 744 1019 744 
Q 1191 744 1312 622 
Q 1434 500 1434 325 
Q 1434 153 1312 31 
Q 1191 -91 1019 -91 
Q 841 -91 722 29 
Q 603 150 603 325 
z
" transform="scale(0.015625)"/>
       </defs>
       <use xlink:href="#DejaVuSerif-30"/>
       <use xlink:href="#DejaVuSerif-2e" x="63.623047"/>
       <use xlink:href="#DejaVuSerif-30" x="95.410156"/>
       <use xlink:href="#DejaVuSerif-30" x="159.033203"/>
      </g>
     </g>
    </g>
    <g id="xtick_2">
     <g id="line2d_2">
      <g>
       <use xlink:href="#m36a5cd3bbe" x="144.19448" y="257.56" style="stroke: #000000; stroke-width: 0.8"/>
      </g>
     </g>
     <g id="text_2">
      <!-- 0.25 -->
      <g transform="translate(126.38198 276.7175) scale(0.16 -0.16)">
       <defs>
        <path id="DejaVuSerif-32" d="M 819 3553 
L 469 3553 
L 469 4384 
Q 803 4563 1142 4656 
Q 1481 4750 1806 4750 
Q 2534 4750 2956 4397 
Q 3378 4044 3378 3438 
Q 3378 2753 2422 1800 
Q 2347 1728 2309 1691 
L 1131 513 
L 3078 513 
L 3078 1088 
L 3444 1088 
L 3444 0 
L 434 0 
L 434 341 
L 1850 1753 
Q 2319 2222 2519 2614 
Q 2719 3006 2719 3438 
Q 2719 3909 2473 4175 
Q 2228 4441 1797 4441 
Q 1350 4441 1106 4219 
Q 863 3997 819 3553 
z
" transform="scale(0.015625)"/>
        <path id="DejaVuSerif-35" d="M 3219 4666 
L 3219 4153 
L 1081 4153 
L 1081 2816 
Q 1244 2928 1461 2984 
Q 1678 3041 1947 3041 
Q 2703 3041 3140 2622 
Q 3578 2203 3578 1478 
Q 3578 738 3136 323 
Q 2694 -91 1894 -91 
Q 1572 -91 1234 -12 
Q 897 66 544 225 
L 544 1131 
L 897 1131 
Q 925 688 1179 453 
Q 1434 219 1894 219 
Q 2388 219 2653 544 
Q 2919 869 2919 1478 
Q 2919 2084 2655 2407 
Q 2391 2731 1894 2731 
Q 1613 2731 1398 2631 
Q 1184 2531 1019 2322 
L 750 2322 
L 750 4666 
L 3219 4666 
z
" transform="scale(0.015625)"/>
       </defs>
       <use xlink:href="#DejaVuSerif-30"/>
       <use xlink:href="#DejaVuSerif-2e" x="63.623047"/>
       <use xlink:href="#DejaVuSerif-32" x="95.410156"/>
       <use xlink:href="#DejaVuSerif-35" x="159.033203"/>
      </g>
     </g>
    </g>
    <g id="xtick_3">
     <g id="line2d_3">
      <g>
       <use xlink:href="#m36a5cd3bbe" x="203.479463" y="257.56" style="stroke: #000000; stroke-width: 0.8"/>
      </g>
     </g>
     <g id="text_3">
      <!-- 0.50 -->
      <g transform="translate(185.666963 276.7175) scale(0.16 -0.16)">
       <use xlink:href="#DejaVuSerif-30"/>
       <use xlink:href="#DejaVuSerif-2e" x="63.623047"/>
       <use xlink:href="#DejaVuSerif-35" x="95.410156"/>
       <use xlink:href="#DejaVuSerif-30" x="159.033203"/>
      </g>
     </g>
    </g>
    <g id="xtick_4">
     <g id="line2d_4">
      <g>
       <use xlink:href="#m36a5cd3bbe" x="262.764446" y="257.56" style="stroke: #000000; stroke-width: 0.8"/>
      </g>
     </g>
     <g id="text_4">
      <!-- 0.75 -->
      <g transform="translate(244.951946 276.7175) scale(0.16 -0.16)">
       <defs>
        <path id="DejaVuSerif-37" d="M 3609 4347 
L 1784 0 
L 1319 0 
L 3059 4153 
L 903 4153 
L 903 3578 
L 538 3578 
L 538 4666 
L 3609 4666 
L 3609 4347 
z
" transform="scale(0.015625)"/>
       </defs>
       <use xlink:href="#DejaVuSerif-30"/>
       <use xlink:href="#DejaVuSerif-2e" x="63.623047"/>
       <use xlink:href="#DejaVuSerif-37" x="95.410156"/>
       <use xlink:href="#DejaVuSerif-35" x="159.033203"/>
      </g>
     </g>
    </g>
    <g id="xtick_5">
     <g id="line2d_5">
      <g>
       <use xlink:href="#m36a5cd3bbe" x="322.049429" y="257.56" style="stroke: #000000; stroke-width: 0.8"/>
      </g>
     </g>
     <g id="text_5">
      <!-- 1.00 -->
      <g transform="translate(304.236929 276.7175) scale(0.16 -0.16)">
       <defs>
        <path id="DejaVuSerif-31" d="M 909 0 
L 909 331 
L 1722 331 
L 1722 4213 
L 781 3603 
L 781 4013 
L 1919 4750 
L 2350 4750 
L 2350 331 
L 3163 331 
L 3163 0 
L 909 0 
z
" transform="scale(0.015625)"/>
       </defs>
       <use xlink:href="#DejaVuSerif-31"/>
       <use xlink:href="#DejaVuSerif-2e" x="63.623047"/>
       <use xlink:href="#DejaVuSerif-30" x="95.410156"/>
       <use xlink:href="#DejaVuSerif-30" x="159.033203"/>
      </g>
     </g>
    </g>
    <g id="text_6">
     <!-- $x/L$ -->
     <g transform="translate(189.399463 296.045) scale(0.16 -0.16)">
      <defs>
       <path id="Cmmi10-78" d="M 500 184 
Q 613 97 819 97 
Q 1019 97 1172 289 
Q 1325 481 1381 709 
L 1672 1844 
Q 1741 2153 1741 2266 
Q 1741 2425 1652 2544 
Q 1563 2663 1403 2663 
Q 1200 2663 1022 2536 
Q 844 2409 722 2214 
Q 600 2019 550 1819 
Q 538 1778 500 1778 
L 422 1778 
Q 372 1778 372 1838 
L 372 1856 
Q 434 2094 584 2320 
Q 734 2547 951 2687 
Q 1169 2828 1416 2828 
Q 1650 2828 1839 2703 
Q 2028 2578 2106 2363 
Q 2216 2559 2386 2693 
Q 2556 2828 2759 2828 
Q 2897 2828 3040 2779 
Q 3184 2731 3275 2631 
Q 3366 2531 3366 2381 
Q 3366 2219 3261 2101 
Q 3156 1984 2994 1984 
Q 2891 1984 2822 2050 
Q 2753 2116 2753 2216 
Q 2753 2350 2845 2451 
Q 2938 2553 3066 2572 
Q 2950 2663 2747 2663 
Q 2541 2663 2389 2472 
Q 2238 2281 2175 2047 
L 1894 916 
Q 1825 659 1825 494 
Q 1825 331 1917 214 
Q 2009 97 2163 97 
Q 2463 97 2698 361 
Q 2934 625 3009 941 
Q 3022 978 3059 978 
L 3138 978 
Q 3163 978 3178 961 
Q 3194 944 3194 922 
Q 3194 916 3188 903 
Q 3097 522 2806 225 
Q 2516 -72 2150 -72 
Q 1916 -72 1727 54 
Q 1538 181 1459 397 
Q 1359 209 1182 68 
Q 1006 -72 806 -72 
Q 669 -72 523 -23 
Q 378 25 287 125 
Q 197 225 197 378 
Q 197 528 301 651 
Q 406 775 563 775 
Q 669 775 741 711 
Q 813 647 813 544 
Q 813 409 723 309 
Q 634 209 500 184 
z
" transform="scale(0.015625)"/>
       <path id="Cmmi10-3d" d="M 359 -1472 
Q 359 -1453 366 -1447 
L 2591 4722 
Q 2603 4759 2634 4779 
Q 2666 4800 2706 4800 
Q 2763 4800 2798 4765 
Q 2834 4731 2834 4672 
L 2834 4647 
L 609 -1522 
Q 572 -1600 488 -1600 
Q 434 -1600 396 -1562 
Q 359 -1525 359 -1472 
z
" transform="scale(0.015625)"/>
       <path id="Cmmi10-4c" d="M 300 0 
Q 238 0 238 84 
Q 241 100 250 139 
Q 259 178 276 201 
Q 294 225 319 225 
Q 709 225 863 269 
Q 947 297 984 441 
L 1863 3956 
Q 1875 4019 1875 4044 
Q 1875 4113 1797 4122 
Q 1678 4147 1338 4147 
Q 1275 4147 1275 4231 
Q 1297 4313 1309 4342 
Q 1322 4372 1381 4372 
L 3272 4372 
Q 3328 4372 3328 4288 
Q 3319 4222 3306 4184 
Q 3294 4147 3244 4147 
Q 2772 4147 2613 4116 
Q 2456 4088 2419 3928 
L 1544 416 
Q 1516 338 1516 275 
Q 1516 225 1734 225 
L 2328 225 
Q 2831 225 3143 425 
Q 3456 625 3606 876 
Q 3756 1128 3857 1398 
Q 3959 1669 4006 1678 
L 4063 1678 
Q 4128 1678 4128 1594 
L 3559 44 
Q 3550 0 3500 0 
L 300 0 
z
" transform="scale(0.015625)"/>
      </defs>
      <use xlink:href="#Cmmi10-78"/>
      <use xlink:href="#Cmmi10-3d" transform="translate(57.080078 0)"/>
      <use xlink:href="#Cmmi10-4c" transform="translate(107.080078 0)"/>
     </g>
    </g>
   </g>
   <g id="matplotlib.axis_2">
    <g id="ytick_1">
     <g id="line2d_6">
      <defs>
       <path id="m9f472f7949" d="M 0 0 
L -3.5 0 
" style="stroke: #000000; stroke-width: 0.8"/>
      </defs>
      <g>
       <use xlink:href="#m9f472f7949" x="73.0525" y="246.18" style="stroke: #000000; stroke-width: 0.8"/>
      </g>
     </g>
     <g id="text_7">
      <!-- −1.0 -->
      <g transform="translate(27.2 252.25875) scale(0.16 -0.16)">
       <defs>
        <path id="DejaVuSerif-2212" d="M 678 2259 
L 4684 2259 
L 4684 1753 
L 678 1753 
L 678 2259 
z
" transform="scale(0.015625)"/>
       </defs>
       <use xlink:href="#DejaVuSerif-2212"/>
       <use xlink:href="#DejaVuSerif-31" x="83.789062"/>
       <use xlink:href="#DejaVuSerif-2e" x="147.412109"/>
       <use xlink:href="#DejaVuSerif-30" x="179.199219"/>
      </g>
     </g>
    </g>
    <g id="ytick_2">
     <g id="line2d_7">
      <g>
       <use xlink:href="#m9f472f7949" x="73.0525" y="189.28" style="stroke: #000000; stroke-width: 0.8"/>
      </g>
     </g>
     <g id="text_8">
      <!-- −0.5 -->
      <g transform="translate(27.2 195.35875) scale(0.16 -0.16)">
       <use xlink:href="#DejaVuSerif-2212"/>
       <use xlink:href="#DejaVuSerif-30" x="83.789062"/>
       <use xlink:href="#DejaVuSerif-2e" x="147.412109"/>
       <use xlink:href="#DejaVuSerif-35" x="179.199219"/>
      </g>
     </g>
    </g>
    <g id="ytick_3">
     <g id="line2d_8">
      <g>
       <use xlink:href="#m9f472f7949" x="73.0525" y="132.38" style="stroke: #000000; stroke-width: 0.8"/>
      </g>
     </g>
     <g id="text_9">
      <!-- 0.0 -->
      <g transform="translate(40.6075 138.45875) scale(0.16 -0.16)">
       <use xlink:href="#DejaVuSerif-30"/>
       <use xlink:href="#DejaVuSerif-2e" x="63.623047"/>
       <use xlink:href="#DejaVuSerif-30" x="95.410156"/>
      </g>
     </g>
    </g>
    <g id="ytick_4">
     <g id="line2d_9">
      <g>
       <use xlink:href="#m9f472f7949" x="73.0525" y="75.48" style="stroke: #000000; stroke-width: 0.8"/>
      </g>
     </g>
     <g id="text_10">
      <!-- 0.5 -->
      <g transform="translate(40.6075 81.55875) scale(0.16 -0.16)">
       <use xlink:href="#DejaVuSerif-30"/>
       <use xlink:href="#DejaVuSerif-2e" x="63.623047"/>
       <use xlink:href="#DejaVuSerif-35" x="95.410156"/>
      </g>
     </g>
    </g>
    <g id="ytick_5">
     <g id="line2d_10">
      <g>
       <use xlink:href="#m9f472f7949" x="73.0525" y="18.58" style="stroke: #000000; stroke-width: 0.8"/>
      </g>
     </g>
     <g id="text_11">
      <!-- 1.0 -->
      <g transform="translate(40.6075 24.65875) scale(0.16 -0.16)">
       <use xlink:href="#DejaVuSerif-31"/>
       <use xlink:href="#DejaVuSerif-2e" x="63.623047"/>
       <use xlink:href="#DejaVuSerif-30" x="95.410156"/>
      </g>
     </g>
    </g>
    <g id="text_12">
     <!-- $\varphi/\varphi^*$ -->
     <g transform="translate(19.2 152.7) rotate(-90) scale(0.16 -0.16)">
      <defs>
       <path id="Cmmi10-27" d="M 1044 -1216 
Q 1044 -1191 1056 -1141 
L 1416 -13 
Q 938 106 628 428 
Q 319 750 319 1216 
Q 319 1450 406 1744 
Q 494 2038 631 2302 
Q 769 2566 928 2741 
Q 966 2759 972 2759 
L 1050 2759 
Q 1069 2759 1084 2740 
Q 1100 2722 1100 2700 
Q 1100 2675 1088 2663 
Q 981 2547 879 2380 
Q 778 2213 698 2028 
Q 619 1844 566 1641 
Q 513 1438 513 1288 
Q 513 909 814 676 
Q 1116 444 1528 366 
L 1709 941 
Q 1828 1313 1945 1605 
Q 2063 1897 2239 2176 
Q 2416 2456 2666 2642 
Q 2916 2828 3225 2828 
Q 3469 2828 3633 2706 
Q 3797 2584 3876 2381 
Q 3956 2178 3956 1947 
Q 3956 1566 3787 1202 
Q 3619 838 3325 548 
Q 3031 259 2662 93 
Q 2294 -72 1919 -72 
Q 1869 -69 1811 -66 
Q 1753 -63 1716 -63 
L 1503 -1178 
Q 1484 -1272 1407 -1333 
Q 1331 -1394 1234 -1394 
Q 1156 -1394 1100 -1345 
Q 1044 -1297 1044 -1216 
z
M 1784 331 
Q 1856 325 1991 325 
Q 2388 325 2798 520 
Q 3209 716 3479 1056 
Q 3750 1397 3750 1797 
Q 3750 1978 3676 2122 
Q 3603 2266 3470 2348 
Q 3338 2431 3163 2431 
Q 2666 2431 2331 1950 
Q 1997 1469 1894 916 
L 1784 331 
z
" transform="scale(0.015625)"/>
       <path id="Cmsy10-a4" d="M 603 813 
Q 531 813 473 873 
Q 416 934 416 1006 
Q 416 1116 506 1159 
L 1428 1600 
L 506 2034 
Q 416 2072 416 2188 
Q 416 2259 473 2320 
Q 531 2381 603 2381 
Q 650 2381 691 2350 
L 1509 1753 
L 1416 2797 
Q 1416 2875 1469 2925 
Q 1522 2975 1600 2975 
Q 1675 2975 1726 2928 
Q 1778 2881 1778 2809 
L 1778 2797 
L 1684 1753 
L 2503 2350 
Q 2544 2381 2591 2381 
Q 2669 2381 2723 2320 
Q 2778 2259 2778 2188 
Q 2778 2072 2688 2034 
L 1766 1600 
L 2688 1159 
Q 2778 1116 2778 1006 
Q 2778 934 2723 873 
Q 2669 813 2591 813 
Q 2544 813 2503 844 
L 1684 1441 
L 1778 403 
L 1778 384 
Q 1778 313 1723 266 
Q 1669 219 1600 219 
Q 1525 219 1470 270 
Q 1416 322 1416 397 
L 1509 1441 
L 691 844 
Q 650 813 603 813 
z
" transform="scale(0.015625)"/>
      </defs>
      <use xlink:href="#Cmmi10-27"/>
      <use xlink:href="#Cmmi10-3d" transform="translate(65.380859 0)"/>
      <use xlink:href="#Cmmi10-27" transform="translate(115.380859 0)"/>
      <use xlink:href="#Cmsy10-a4" transform="translate(199.356016 38.264063) scale(0.7)"/>
     </g>
    </g>
   </g>
   <g id="line2d_11">
    <path d="M 84.909497 132.38 
L 90.990008 118.178563 
L 97.070519 104.344935 
L 103.15103 91.237401 
L 109.231541 79.195438 
L 115.312052 68.530928 
L 121.392563 59.520075 
L 127.473074 52.396256 
L 133.553585 47.343974 
L 139.634096 44.49408 
L 145.714607 43.920385 
L 151.795119 45.637748 
L 157.87563 49.60169 
L 163.956141 55.709547 
L 170.036652 63.803128 
L 176.117163 73.672814 
L 182.197674 85.062985 
L 188.278185 97.678642 
L 194.358696 111.193046 
L 200.439207 125.256181 
L 206.519718 139.503819 
L 212.600229 153.566954 
L 218.680741 167.081358 
L 224.761252 179.697015 
L 230.841763 191.087186 
L 236.922274 200.956872 
L 243.002785 209.050453 
L 249.083296 215.15831 
L 255.163807 219.122252 
L 261.244318 220.839615 
L 267.324829 220.26592 
L 273.40534 217.416026 
L 279.485851 212.363744 
L 285.566362 205.239925 
L 291.646874 196.229072 
L 297.727385 185.564562 
L 303.807896 173.522599 
L 309.888407 160.415065 
L 315.968918 146.581437 
L 322.049429 132.38 
" clip-path="url(#pe902e87b46)" style="fill: none; stroke: #ff0000; stroke-width: 2; stroke-linecap: square"/>
   </g>
   <g id="line2d_12">
    <path d="M 84.909497 43.848586 
L 90.990008 44.995045 
L 97.070519 48.404728 
L 103.15103 53.989326 
L 109.231541 61.604202 
L 115.312052 71.052134 
L 121.392563 82.088425 
L 127.473074 94.427241 
L 133.553585 107.749015 
L 139.634096 121.708717 
L 145.714607 135.944801 
L 151.795119 150.088557 
L 157.87563 163.773672 
L 163.956141 176.645707 
L 170.036652 188.371283 
L 176.117163 198.646715 
L 182.197674 207.205873 
L 188.278185 213.827081 
L 194.358696 218.338852 
L 200.439207 220.624334 
L 206.519718 220.624334 
L 212.600229 218.338852 
L 218.680741 213.827081 
L 224.761252 207.205873 
L 230.841763 198.646715 
L 236.922274 188.371283 
L 243.002785 176.645707 
L 249.083296 163.773672 
L 255.163807 150.088557 
L 261.244318 135.944801 
L 267.324829 121.708717 
L 273.40534 107.749015 
L 279.485851 94.427241 
L 285.566362 82.088425 
L 291.646874 71.052134 
L 297.727385 61.604202 
L 303.807896 53.989326 
L 309.888407 48.404728 
L 315.968918 44.995045 
L 322.049429 43.848586 
" clip-path="url(#pe902e87b46)" style="fill: none; stroke: #000000; stroke-width: 2; stroke-linecap: square"/>
   </g>
   <g id="patch_3">
    <path d="M 73.0525 257.56 
L 73.0525 7.2 
" style="fill: none; stroke: #000000; stroke-width: 0.8; stroke-linejoin: miter; stroke-linecap: square"/>
   </g>
   <g id="patch_4">
    <path d="M 333.906426 257.56 
L 333.906426 7.2 
" style="fill: none; stroke: #000000; stroke-width: 0.8; stroke-linejoin: miter; stroke-linecap: square"/>
   </g>
   <g id="patch_5">
    <path d="M 73.0525 257.56 
L 333.906426 257.56 
" style="fill: none; stroke: #000000; stroke-width: 0.8; stroke-linejoin: miter; stroke-linecap: square"/>
   </g>
   <g id="patch_6">
    <path d="M 73.0525 7.2 
L 333.906426 7.2 
" style="fill: none; stroke: #000000; stroke-width: 0.8; stroke-linejoin: miter; stroke-linecap: square"/>
   </g>
   <g id="legend_1">
    <g id="patch_7">
     <path d="M 84.2525 249.56 
L 152.5725 249.56 
Q 155.7725 249.56 155.7725 246.36 
L 155.7725 200.605 
Q 155.7725 197.405 152.5725 197.405 
L 84.2525 197.405 
Q 81.0525 197.405 81.0525 200.605 
L 81.0525 246.36 
Q 81.0525 249.56 84.2525 249.56 
z
" style="fill: #ffffff; opacity: 0.8; stroke: #cccccc; stroke-linejoin: miter"/>
    </g>
    <g id="line2d_13">
     <path d="M 87.4525 210.3625 
L 103.4525 210.3625 
L 119.4525 210.3625 
" style="fill: none; stroke: #ff0000; stroke-width: 2; stroke-linecap: square"/>
    </g>
    <g id="text_13">
     <!-- $\varphi_1$ -->
     <g transform="translate(132.2525 215.9625) scale(0.16 -0.16)">
      <defs>
       <path id="Cmr10-31" d="M 594 0 
L 594 225 
Q 1394 225 1394 428 
L 1394 3788 
Q 1063 3628 556 3628 
L 556 3853 
Q 1341 3853 1741 4263 
L 1831 4263 
Q 1853 4263 1873 4245 
Q 1894 4228 1894 4206 
L 1894 428 
Q 1894 225 2694 225 
L 2694 0 
L 594 0 
z
" transform="scale(0.015625)"/>
      </defs>
      <use xlink:href="#Cmmi10-27" transform="translate(0 0.8125)"/>
      <use xlink:href="#Cmr10-31" transform="translate(65.380859 -16.19375) scale(0.7)"/>
     </g>
    </g>
    <g id="line2d_14">
     <path d="M 87.4525 234.04 
L 103.4525 234.04 
L 119.4525 234.04 
" style="fill: none; stroke: #000000; stroke-width: 2; stroke-linecap: square"/>
    </g>
    <g id="text_14">
     <!-- $\varphi_2$ -->
     <g transform="translate(132.2525 239.64) scale(0.16 -0.16)">
      <defs>
       <path id="Cmr10-32" d="M 319 0 
L 319 172 
Q 319 188 331 206 
L 1325 1306 
Q 1550 1550 1690 1715 
Q 1831 1881 1968 2097 
Q 2106 2313 2186 2536 
Q 2266 2759 2266 3009 
Q 2266 3272 2169 3511 
Q 2072 3750 1880 3894 
Q 1688 4038 1416 4038 
Q 1138 4038 916 3870 
Q 694 3703 603 3438 
Q 628 3444 672 3444 
Q 816 3444 917 3347 
Q 1019 3250 1019 3097 
Q 1019 2950 917 2848 
Q 816 2747 672 2747 
Q 522 2747 420 2851 
Q 319 2956 319 3097 
Q 319 3338 409 3548 
Q 500 3759 670 3923 
Q 841 4088 1055 4175 
Q 1269 4263 1509 4263 
Q 1875 4263 2190 4108 
Q 2506 3953 2690 3670 
Q 2875 3388 2875 3009 
Q 2875 2731 2753 2481 
Q 2631 2231 2440 2026 
Q 2250 1822 1953 1562 
Q 1656 1303 1563 1216 
L 838 519 
L 1453 519 
Q 1906 519 2211 526 
Q 2516 534 2534 550 
Q 2609 631 2688 1141 
L 2875 1141 
L 2694 0 
L 319 0 
z
" transform="scale(0.015625)"/>
      </defs>
      <use xlink:href="#Cmmi10-27" transform="translate(0 0.8125)"/>
      <use xlink:href="#Cmr10-32" transform="translate(65.380859 -16.19375) scale(0.7)"/>
     </g>
    </g>
   </g>
  </g>
  <g id="axes_2">
   <g id="patch_8">
    <path d="M 426.9775 257.56 
L 687.831426 257.56 
L 687.831426 7.2 
L 426.9775 7.2 
z
" style="fill: #ffffff"/>
   </g>
   <g id="matplotlib.axis_3">
    <g id="xtick_6">
     <g id="line2d_15">
      <g>
       <use xlink:href="#m36a5cd3bbe" x="438.449386" y="257.56" style="stroke: #000000; stroke-width: 0.8"/>
      </g>
     </g>
     <g id="text_15">
      <!-- −1.0 -->
      <g transform="translate(419.023136 276.7175) scale(0.16 -0.16)">
       <use xlink:href="#DejaVuSerif-2212"/>
       <use xlink:href="#DejaVuSerif-31" x="83.789062"/>
       <use xlink:href="#DejaVuSerif-2e" x="147.412109"/>
       <use xlink:href="#DejaVuSerif-30" x="179.199219"/>
      </g>
     </g>
    </g>
    <g id="xtick_7">
     <g id="line2d_16">
      <g>
       <use xlink:href="#m36a5cd3bbe" x="497.830647" y="257.56" style="stroke: #000000; stroke-width: 0.8"/>
      </g>
     </g>
     <g id="text_16">
      <!-- −0.5 -->
      <g transform="translate(478.404397 276.7175) scale(0.16 -0.16)">
       <use xlink:href="#DejaVuSerif-2212"/>
       <use xlink:href="#DejaVuSerif-30" x="83.789062"/>
       <use xlink:href="#DejaVuSerif-2e" x="147.412109"/>
       <use xlink:href="#DejaVuSerif-35" x="179.199219"/>
      </g>
     </g>
    </g>
    <g id="xtick_8">
     <g id="line2d_17">
      <g>
       <use xlink:href="#m36a5cd3bbe" x="557.211908" y="257.56" style="stroke: #000000; stroke-width: 0.8"/>
      </g>
     </g>
     <g id="text_17">
      <!-- 0.0 -->
      <g transform="translate(544.489408 276.7175) scale(0.16 -0.16)">
       <use xlink:href="#DejaVuSerif-30"/>
       <use xlink:href="#DejaVuSerif-2e" x="63.623047"/>
       <use xlink:href="#DejaVuSerif-30" x="95.410156"/>
      </g>
     </g>
    </g>
    <g id="xtick_9">
     <g id="line2d_18">
      <g>
       <use xlink:href="#m36a5cd3bbe" x="616.593168" y="257.56" style="stroke: #000000; stroke-width: 0.8"/>
      </g>
     </g>
     <g id="text_18">
      <!-- 0.5 -->
      <g transform="translate(603.870668 276.7175) scale(0.16 -0.16)">
       <use xlink:href="#DejaVuSerif-30"/>
       <use xlink:href="#DejaVuSerif-2e" x="63.623047"/>
       <use xlink:href="#DejaVuSerif-35" x="95.410156"/>
      </g>
     </g>
    </g>
    <g id="xtick_10">
     <g id="line2d_19">
      <g>
       <use xlink:href="#m36a5cd3bbe" x="675.974429" y="257.56" style="stroke: #000000; stroke-width: 0.8"/>
      </g>
     </g>
     <g id="text_19">
      <!-- 1.0 -->
      <g transform="translate(663.251929 276.7175) scale(0.16 -0.16)">
       <use xlink:href="#DejaVuSerif-31"/>
       <use xlink:href="#DejaVuSerif-2e" x="63.623047"/>
       <use xlink:href="#DejaVuSerif-30" x="95.410156"/>
      </g>
     </g>
    </g>
    <g id="text_20">
     <!-- $\varphi_2/\varphi^*$ -->
     <g transform="translate(533.804463 296.045) scale(0.16 -0.16)">
      <use xlink:href="#Cmmi10-27"/>
      <use xlink:href="#Cmr10-32" transform="translate(65.380859 -17.00625) scale(0.7)"/>
      <use xlink:href="#Cmmi10-3d" transform="translate(106.758203 0)"/>
      <use xlink:href="#Cmmi10-27" transform="translate(156.758203 0)"/>
      <use xlink:href="#Cmsy10-a4" transform="translate(240.733359 38.264063) scale(0.7)"/>
     </g>
    </g>
   </g>
   <g id="matplotlib.axis_4">
    <g id="ytick_6">
     <g id="line2d_20">
      <g>
       <use xlink:href="#m9f472f7949" x="426.9775" y="246.272367" style="stroke: #000000; stroke-width: 0.8"/>
      </g>
     </g>
     <g id="text_21">
      <!-- −1.0 -->
      <g transform="translate(381.125 252.351117) scale(0.16 -0.16)">
       <use xlink:href="#DejaVuSerif-2212"/>
       <use xlink:href="#DejaVuSerif-31" x="83.789062"/>
       <use xlink:href="#DejaVuSerif-2e" x="147.412109"/>
       <use xlink:href="#DejaVuSerif-30" x="179.199219"/>
      </g>
     </g>
    </g>
    <g id="ytick_7">
     <g id="line2d_21">
      <g>
       <use xlink:href="#m9f472f7949" x="426.9775" y="189.326183" style="stroke: #000000; stroke-width: 0.8"/>
      </g>
     </g>
     <g id="text_22">
      <!-- −0.5 -->
      <g transform="translate(381.125 195.404933) scale(0.16 -0.16)">
       <use xlink:href="#DejaVuSerif-2212"/>
       <use xlink:href="#DejaVuSerif-30" x="83.789062"/>
       <use xlink:href="#DejaVuSerif-2e" x="147.412109"/>
       <use xlink:href="#DejaVuSerif-35" x="179.199219"/>
      </g>
     </g>
    </g>
    <g id="ytick_8">
     <g id="line2d_22">
      <g>
       <use xlink:href="#m9f472f7949" x="426.9775" y="132.38" style="stroke: #000000; stroke-width: 0.8"/>
      </g>
     </g>
     <g id="text_23">
      <!-- 0.0 -->
      <g transform="translate(394.5325 138.45875) scale(0.16 -0.16)">
       <use xlink:href="#DejaVuSerif-30"/>
       <use xlink:href="#DejaVuSerif-2e" x="63.623047"/>
       <use xlink:href="#DejaVuSerif-30" x="95.410156"/>
      </g>
     </g>
    </g>
    <g id="ytick_9">
     <g id="line2d_23">
      <g>
       <use xlink:href="#m9f472f7949" x="426.9775" y="75.433817" style="stroke: #000000; stroke-width: 0.8"/>
      </g>
     </g>
     <g id="text_24">
      <!-- 0.5 -->
      <g transform="translate(394.5325 81.512567) scale(0.16 -0.16)">
       <use xlink:href="#DejaVuSerif-30"/>
       <use xlink:href="#DejaVuSerif-2e" x="63.623047"/>
       <use xlink:href="#DejaVuSerif-35" x="95.410156"/>
      </g>
     </g>
    </g>
    <g id="ytick_10">
     <g id="line2d_24">
      <g>
       <use xlink:href="#m9f472f7949" x="426.9775" y="18.487633" style="stroke: #000000; stroke-width: 0.8"/>
      </g>
     </g>
     <g id="text_25">
      <!-- 1.0 -->
      <g transform="translate(394.5325 24.566383) scale(0.16 -0.16)">
       <use xlink:href="#DejaVuSerif-31"/>
       <use xlink:href="#DejaVuSerif-2e" x="63.623047"/>
       <use xlink:href="#DejaVuSerif-30" x="95.410156"/>
      </g>
     </g>
    </g>
    <g id="text_26">
     <!-- $\varphi_1/\varphi^*$ -->
     <g transform="translate(373.125 155.98) rotate(-90) scale(0.16 -0.16)">
      <use xlink:href="#Cmmi10-27"/>
      <use xlink:href="#Cmr10-31" transform="translate(65.380859 -17.00625) scale(0.7)"/>
      <use xlink:href="#Cmmi10-3d" transform="translate(106.758203 0)"/>
      <use xlink:href="#Cmmi10-27" transform="translate(156.758203 0)"/>
      <use xlink:href="#Cmsy10-a4" transform="translate(240.733359 38.264063) scale(0.7)"/>
     </g>
    </g>
   </g>
   <g id="line2d_25">
    <path d="M 675.974429 132.38 
L 674.436486 114.11038 
L 669.862487 96.313933 
L 662.370898 79.451578 
L 652.155746 63.960042 
L 639.481598 50.240546 
L 624.676709 38.64842 
L 608.124517 29.483892 
L 590.253715 22.984319 
L 571.527148 19.318037 
L 552.429823 18.58 
L 533.456352 20.789324 
L 515.098137 25.888787 
L 497.830647 33.746317 
L 482.1011 44.158407 
L 468.316884 56.855391 
L 456.835002 71.508422 
L 447.952829 87.737995 
L 441.900409 105.123773 
L 438.834497 123.215472 
L 438.834497 141.544528 
L 441.900409 159.636227 
L 447.952829 177.022005 
L 456.835002 193.251578 
L 468.316884 207.904609 
L 482.1011 220.601593 
L 497.830647 231.013683 
L 515.098137 238.871213 
L 533.456352 243.970676 
L 552.429823 246.18 
L 571.527148 245.441963 
L 590.253715 241.775681 
L 608.124517 235.276108 
L 624.676709 226.11158 
L 639.481598 214.519454 
L 652.155746 200.799958 
L 662.370898 185.308422 
L 669.862487 168.446067 
L 674.436486 150.64962 
L 675.974429 132.38 
" clip-path="url(#p67b9b74768)" style="fill: none; stroke-dasharray: 7.4,3.2; stroke-dashoffset: 0; stroke: #000000; stroke-width: 2"/>
   </g>
   <g id="line2d_26">
    <path d="M 649.603946 132.38 
L 648.407493 118.167036 
L 644.849123 104.32218 
L 639.020994 91.204007 
L 631.074054 79.15227 
L 621.214122 68.479104 
L 609.696567 59.460937 
L 596.819687 52.331336 
L 582.916986 47.274953 
L 568.348537 44.422746 
L 553.491655 43.848586 
L 538.731126 45.567343 
L 524.44924 49.534502 
L 511.015889 55.647316 
L 498.778991 63.747467 
L 488.055474 73.625163 
L 479.123073 85.024579 
L 472.213132 97.650476 
L 467.504615 111.175849 
L 465.119469 125.250399 
L 465.119469 139.509601 
L 467.504615 153.584151 
L 472.213132 167.109524 
L 479.123073 179.735421 
L 488.055474 191.134837 
L 498.778991 201.012533 
L 511.015889 209.112684 
L 524.44924 215.225498 
L 538.731126 219.192657 
L 553.491655 220.911414 
L 568.348537 220.337254 
L 582.916986 217.485047 
L 596.819687 212.428664 
L 609.696567 205.299063 
L 621.214122 196.280896 
L 631.074054 185.60773 
L 639.020994 173.555993 
L 644.849123 160.43782 
L 648.407493 146.592964 
L 649.603946 132.38 
" clip-path="url(#p67b9b74768)" style="fill: none; stroke-dasharray: 7.4,3.2; stroke-dashoffset: 0; stroke: #ff0000; stroke-width: 2"/>
    <defs>
     <path id="m380897ee3c" d="M 0 1.5 
C 0.397805 1.5 0.77937 1.341951 1.06066 1.06066 
C 1.341951 0.77937 1.5 0.397805 1.5 0 
C 1.5 -0.397805 1.341951 -0.77937 1.06066 -1.06066 
C 0.77937 -1.341951 0.397805 -1.5 0 -1.5 
C -0.397805 -1.5 -0.77937 -1.341951 -1.06066 -1.06066 
C -1.341951 -0.77937 -1.5 -0.397805 -1.5 0 
C -1.5 0.397805 -1.341951 0.77937 -1.06066 1.06066 
C -0.77937 1.341951 -0.397805 1.5 0 1.5 
z
" style="stroke: #ff0000"/>
    </defs>
    <g clip-path="url(#p67b9b74768)">
     <use xlink:href="#m380897ee3c" x="649.603946" y="132.38" style="fill: #ff0000; stroke: #ff0000"/>
     <use xlink:href="#m380897ee3c" x="648.407493" y="118.167036" style="fill: #ff0000; stroke: #ff0000"/>
     <use xlink:href="#m380897ee3c" x="644.849123" y="104.32218" style="fill: #ff0000; stroke: #ff0000"/>
     <use xlink:href="#m380897ee3c" x="639.020994" y="91.204007" style="fill: #ff0000; stroke: #ff0000"/>
     <use xlink:href="#m380897ee3c" x="631.074054" y="79.15227" style="fill: #ff0000; stroke: #ff0000"/>
     <use xlink:href="#m380897ee3c" x="621.214122" y="68.479104" style="fill: #ff0000; stroke: #ff0000"/>
     <use xlink:href="#m380897ee3c" x="609.696567" y="59.460937" style="fill: #ff0000; stroke: #ff0000"/>
     <use xlink:href="#m380897ee3c" x="596.819687" y="52.331336" style="fill: #ff0000; stroke: #ff0000"/>
     <use xlink:href="#m380897ee3c" x="582.916986" y="47.274953" style="fill: #ff0000; stroke: #ff0000"/>
     <use xlink:href="#m380897ee3c" x="568.348537" y="44.422746" style="fill: #ff0000; stroke: #ff0000"/>
     <use xlink:href="#m380897ee3c" x="553.491655" y="43.848586" style="fill: #ff0000; stroke: #ff0000"/>
     <use xlink:href="#m380897ee3c" x="538.731126" y="45.567343" style="fill: #ff0000; stroke: #ff0000"/>
     <use xlink:href="#m380897ee3c" x="524.44924" y="49.534502" style="fill: #ff0000; stroke: #ff0000"/>
     <use xlink:href="#m380897ee3c" x="511.015889" y="55.647316" style="fill: #ff0000; stroke: #ff0000"/>
     <use xlink:href="#m380897ee3c" x="498.778991" y="63.747467" style="fill: #ff0000; stroke: #ff0000"/>
     <use xlink:href="#m380897ee3c" x="488.055474" y="73.625163" style="fill: #ff0000; stroke: #ff0000"/>
     <use xlink:href="#m380897ee3c" x="479.123073" y="85.024579" style="fill: #ff0000; stroke: #ff0000"/>
     <use xlink:href="#m380897ee3c" x="472.213132" y="97.650476" style="fill: #ff0000; stroke: #ff0000"/>
     <use xlink:href="#m380897ee3c" x="467.504615" y="111.175849" style="fill: #ff0000; stroke: #ff0000"/>
     <use xlink:href="#m380897ee3c" x="465.119469" y="125.250399" style="fill: #ff0000; stroke: #ff0000"/>
     <use xlink:href="#m380897ee3c" x="465.119469" y="139.509601" style="fill: #ff0000; stroke: #ff0000"/>
     <use xlink:href="#m380897ee3c" x="467.504615" y="153.584151" style="fill: #ff0000; stroke: #ff0000"/>
     <use xlink:href="#m380897ee3c" x="472.213132" y="167.109524" style="fill: #ff0000; stroke: #ff0000"/>
     <use xlink:href="#m380897ee3c" x="479.123073" y="179.735421" style="fill: #ff0000; stroke: #ff0000"/>
     <use xlink:href="#m380897ee3c" x="488.055474" y="191.134837" style="fill: #ff0000; stroke: #ff0000"/>
     <use xlink:href="#m380897ee3c" x="498.778991" y="201.012533" style="fill: #ff0000; stroke: #ff0000"/>
     <use xlink:href="#m380897ee3c" x="511.015889" y="209.112684" style="fill: #ff0000; stroke: #ff0000"/>
     <use xlink:href="#m380897ee3c" x="524.44924" y="215.225498" style="fill: #ff0000; stroke: #ff0000"/>
     <use xlink:href="#m380897ee3c" x="538.731126" y="219.192657" style="fill: #ff0000; stroke: #ff0000"/>
     <use xlink:href="#m380897ee3c" x="553.491655" y="220.911414" style="fill: #ff0000; stroke: #ff0000"/>
     <use xlink:href="#m380897ee3c" x="568.348537" y="220.337254" style="fill: #ff0000; stroke: #ff0000"/>
     <use xlink:href="#m380897ee3c" x="582.916986" y="217.485047" style="fill: #ff0000; stroke: #ff0000"/>
     <use xlink:href="#m380897ee3c" x="596.819687" y="212.428664" style="fill: #ff0000; stroke: #ff0000"/>
     <use xlink:href="#m380897ee3c" x="609.696567" y="205.299063" style="fill: #ff0000; stroke: #ff0000"/>
     <use xlink:href="#m380897ee3c" x="621.214122" y="196.280896" style="fill: #ff0000; stroke: #ff0000"/>
     <use xlink:href="#m380897ee3c" x="631.074054" y="185.60773" style="fill: #ff0000; stroke: #ff0000"/>
     <use xlink:href="#m380897ee3c" x="639.020994" y="173.555993" style="fill: #ff0000; stroke: #ff0000"/>
     <use xlink:href="#m380897ee3c" x="644.849123" y="160.43782" style="fill: #ff0000; stroke: #ff0000"/>
     <use xlink:href="#m380897ee3c" x="648.407493" y="146.592964" style="fill: #ff0000; stroke: #ff0000"/>
     <use xlink:href="#m380897ee3c" x="649.603946" y="132.38" style="fill: #ff0000; stroke: #ff0000"/>
    </g>
   </g>
   <g id="patch_9">
    <path d="M 426.9775 257.56 
L 426.9775 7.2 
" style="fill: none; stroke: #000000; stroke-width: 0.8; stroke-linejoin: miter; stroke-linecap: square"/>
   </g>
   <g id="patch_10">
    <path d="M 687.831426 257.56 
L 687.831426 7.2 
" style="fill: none; stroke: #000000; stroke-width: 0.8; stroke-linejoin: miter; stroke-linecap: square"/>
   </g>
   <g id="patch_11">
    <path d="M 426.9775 257.56 
L 687.831426 257.56 
" style="fill: none; stroke: #000000; stroke-width: 0.8; stroke-linejoin: miter; stroke-linecap: square"/>
   </g>
   <g id="patch_12">
    <path d="M 426.9775 7.2 
L 687.831426 7.2 
" style="fill: none; stroke: #000000; stroke-width: 0.8; stroke-linejoin: miter; stroke-linecap: square"/>
   </g>
   <g id="legend_2">
    <g id="patch_13">
     <path d="M 502.044463 158.9375 
L 612.764463 158.9375 
Q 615.964463 158.9375 615.964463 155.7375 
L 615.964463 109.0225 
Q 615.964463 105.8225 612.764463 105.8225 
L 502.044463 105.8225 
Q 498.844463 105.8225 498.844463 109.0225 
L 498.844463 155.7375 
Q 498.844463 158.9375 502.044463 158.9375 
z
" style="fill: #ffffff; opacity: 0.8; stroke: #cccccc; stroke-linejoin: miter"/>
    </g>
    <g id="line2d_27">
     <path d="M 505.244463 118.78 
L 521.244463 118.78 
L 537.244463 118.78 
" style="fill: none; stroke-dasharray: 7.4,3.2; stroke-dashoffset: 0; stroke: #000000; stroke-width: 2"/>
    </g>
    <g id="text_27">
     <!-- $|\varphi| = \varphi^*$ -->
     <g transform="translate(550.044463 124.38) scale(0.16 -0.16)">
      <defs>
       <path id="Cmsy10-6a" d="M 763 -1484 
L 763 4684 
Q 763 4734 800 4767 
Q 838 4800 891 4800 
Q 938 4800 978 4767 
Q 1019 4734 1019 4684 
L 1019 -1484 
Q 1019 -1534 978 -1567 
Q 938 -1600 891 -1600 
Q 838 -1600 800 -1567 
Q 763 -1534 763 -1484 
z
" transform="scale(0.015625)"/>
       <path id="Cmr10-3d" d="M 481 850 
Q 428 850 393 890 
Q 359 931 359 978 
Q 359 1031 393 1068 
Q 428 1106 481 1106 
L 4500 1106 
Q 4547 1106 4581 1068 
Q 4616 1031 4616 978 
Q 4616 931 4581 890 
Q 4547 850 4500 850 
L 481 850 
z
M 481 2094 
Q 428 2094 393 2131 
Q 359 2169 359 2222 
Q 359 2269 393 2309 
Q 428 2350 481 2350 
L 4500 2350 
Q 4547 2350 4581 2309 
Q 4616 2269 4616 2222 
Q 4616 2169 4581 2131 
Q 4547 2094 4500 2094 
L 481 2094 
z
" transform="scale(0.015625)"/>
      </defs>
      <use xlink:href="#Cmsy10-6a"/>
      <use xlink:href="#Cmmi10-27" transform="translate(27.685547 0)"/>
      <use xlink:href="#Cmsy10-6a" transform="translate(93.066406 0)"/>
      <use xlink:href="#Cmr10-3d" transform="translate(138.310547 0)"/>
      <use xlink:href="#Cmmi10-27" transform="translate(233.554688 0)"/>
      <use xlink:href="#Cmsy10-a4" transform="translate(317.529844 38.264063) scale(0.7)"/>
     </g>
    </g>
    <g id="line2d_28">
     <path d="M 505.244463 142.9375 
L 521.244463 142.9375 
L 537.244463 142.9375 
" style="fill: none; stroke-dasharray: 7.4,3.2; stroke-dashoffset: 0; stroke: #ff0000; stroke-width: 2"/>
     <g>
      <use xlink:href="#m380897ee3c" x="521.244463" y="142.9375" style="fill: #ff0000; stroke: #ff0000"/>
     </g>
    </g>
    <g id="text_28">
     <!-- $\varphi_i(x)$ -->
     <g transform="translate(550.044463 148.5375) scale(0.16 -0.16)">
      <defs>
       <path id="Cmmi10-69" d="M 500 459 
Q 500 578 550 709 
L 1069 2088 
Q 1153 2322 1153 2472 
Q 1153 2663 1013 2663 
Q 759 2663 595 2402 
Q 431 2141 353 1819 
Q 341 1778 300 1778 
L 225 1778 
Q 172 1778 172 1838 
L 172 1856 
Q 275 2238 487 2533 
Q 700 2828 1025 2828 
Q 1253 2828 1411 2678 
Q 1569 2528 1569 2297 
Q 1569 2178 1516 2047 
L 997 672 
Q 909 459 909 288 
Q 909 97 1056 97 
Q 1306 97 1473 364 
Q 1641 631 1709 941 
Q 1722 978 1759 978 
L 1838 978 
Q 1863 978 1878 961 
Q 1894 944 1894 922 
Q 1894 916 1888 903 
Q 1800 541 1583 234 
Q 1366 -72 1044 -72 
Q 819 -72 659 83 
Q 500 238 500 459 
z
M 1222 3878 
Q 1222 4013 1334 4122 
Q 1447 4231 1581 4231 
Q 1691 4231 1761 4164 
Q 1831 4097 1831 3994 
Q 1831 3850 1717 3742 
Q 1603 3634 1466 3634 
Q 1363 3634 1292 3704 
Q 1222 3775 1222 3878 
z
" transform="scale(0.015625)"/>
       <path id="Cmr10-28" d="M 1984 -1588 
Q 1628 -1306 1370 -942 
Q 1113 -578 948 -165 
Q 784 247 703 697 
Q 622 1147 622 1600 
Q 622 2059 703 2509 
Q 784 2959 951 3375 
Q 1119 3791 1378 4153 
Q 1638 4516 1984 4788 
Q 1984 4800 2016 4800 
L 2075 4800 
Q 2094 4800 2109 4783 
Q 2125 4766 2125 4744 
Q 2125 4716 2113 4703 
Q 1800 4397 1592 4047 
Q 1384 3697 1257 3301 
Q 1131 2906 1075 2482 
Q 1019 2059 1019 1600 
Q 1019 -434 2106 -1491 
Q 2125 -1509 2125 -1544 
Q 2125 -1559 2108 -1579 
Q 2091 -1600 2075 -1600 
L 2016 -1600 
Q 1984 -1600 1984 -1588 
z
" transform="scale(0.015625)"/>
       <path id="Cmr10-29" d="M 416 -1600 
Q 359 -1600 359 -1544 
Q 359 -1516 372 -1503 
Q 1466 -434 1466 1600 
Q 1466 3634 384 4691 
Q 359 4706 359 4744 
Q 359 4766 376 4783 
Q 394 4800 416 4800 
L 475 4800 
Q 494 4800 506 4788 
Q 966 4425 1272 3906 
Q 1578 3388 1720 2800 
Q 1863 2213 1863 1600 
Q 1863 1147 1786 708 
Q 1709 269 1542 -157 
Q 1375 -584 1119 -945 
Q 863 -1306 506 -1588 
Q 494 -1600 475 -1600 
L 416 -1600 
z
" transform="scale(0.015625)"/>
      </defs>
      <use xlink:href="#Cmmi10-27"/>
      <use xlink:href="#Cmmi10-69" transform="translate(65.380859 -17.00625) scale(0.7)"/>
      <use xlink:href="#Cmr10-28" transform="translate(95.854883 0)"/>
      <use xlink:href="#Cmmi10-78" transform="translate(134.673242 0)"/>
      <use xlink:href="#Cmr10-29" transform="translate(191.75332 0)"/>
     </g>
    </g>
   </g>
  </g>
 </g>
 <defs>
  <clipPath id="pe902e87b46">
   <rect x="73.0525" y="7.2" width="260.853926" height="250.36"/>
  </clipPath>
  <clipPath id="p67b9b74768">
   <rect x="426.9775" y="7.2" width="260.853926" height="250.36"/>
  </clipPath>
 </defs>
</svg>
